<svg xmlns="http://www.w3.org/2000/svg" width="178" height="55.88" viewBox="0 0 178 55.88">
  <g id="ir" transform="translate(0 0.88)">
    <g id="Vector_Smart_Object" data-name="Vector Smart Object" transform="translate(0 0)">
      <path id="패스_23" data-name="패스 23" d="M172.054,134.224c-15.476,0-28.02,12.314-28.02,27.5s12.544,27.5,28.02,27.5,28.016-12.314,28.016-27.5-12.542-27.5-28.016-27.5m-.008,1.989c6.921,0,12.536,5.119,12.536,11.914v.331c0,2.46-1.664,6.23-3.808,10.079-1.045-4.8-7.107-12.914-7.852-13.9-.186-.245-.556-.722-.81-1.029,0,0-.581.78-.771,1.023-.761,1-6.966,9.231-7.946,14.014-2.178-3.885-3.87-7.7-3.87-10.183l-.016-.33c0-6.8,5.613-11.914,12.537-11.914m6.907,23.587a6.564,6.564,0,0,1-.725,3.006c-2.444,3.884-4.939,7.363-6.174,9.034-1-1.358-2.832-3.9-4.794-6.887-2.841-4.181-.727-9.18.307-11.126a76.814,76.814,0,0,1,4.546-6.975c2.443,3.388,6.841,10.055,6.841,12.947M153.53,143.776a23.38,23.38,0,0,1,5.794-4.4c-4.122,4.387-1.108,12.64-1.108,12.64v-.007c1.913,6.013,7.518,14.383,10.733,18.9-.679-.379-1.442-.818-2.246-1.314-20.135-12.662-13.558-25.128-13.172-25.813m-4.754,6.414-.044.117a30.75,30.75,0,0,0,2.524,6.982q.112.222.225.44c.192.364.352.642.461.832.006.009.008.015.012.022.1.17.164.273.164.273l0-.018a30.794,30.794,0,0,0,6.212,7.113c3.135,2.729,8.029,5.185,10.561,6.625-4.924-.5-11.761-1.737-16.678-4-5.637-2.774-6.146-7.675-6.174-8a25.224,25.224,0,0,1,2.74-10.383m2.15,26.465A25.292,25.292,0,0,1,147,168.667c.154.122,2.61,1.977,10.156,3.569l0,0a83.916,83.916,0,0,0,11.967,1.684c-2.461,1.443-6.112,3.769-6.954,4.2a13.451,13.451,0,0,1-1.827.764c-6.67,1.4-9.408-2.223-9.408-2.223m17.694,10.4a26.139,26.139,0,0,1-12.486-5.118c1.778.107,5.169-1.311,6.047-1.694a.163.163,0,0,0,.042-.017l.173-.078h-.013c.227-.1.45-.2.678-.317.823-.412,3.728-2.1,6.117-3.505a11.731,11.731,0,0,0-1.2,4.043l0,0a.308.308,0,0,0,0,.051.208.208,0,0,0-.006.035,15.5,15.5,0,0,0,.657,6.6m3.138-1.182a6.771,6.771,0,0,1-1.846-4.8c0-3.4,2.918-7,2.918-7l.012-.018c.276-.359,3.568-4.69,6.86-9.912a.783.783,0,0,0,.157-.207c.034-.058.055-.119.087-.18.833-1.334,1.664-2.72,2.435-4.106,8.076-13.626,3.044-19.387,1.4-20.774a25.961,25.961,0,0,1,6.181,4.239,11.912,11.912,0,0,1,1.921,2.548,12.105,12.105,0,0,1,1.74,6.269c0,6.91-13.146,24.214-13.317,24.438-.587.76-5.259,6.878-6.144,10.73a4.393,4.393,0,0,1-2.406-1.227m7.07.53c-.011-.008-1.888-1.127.254-4.88,1.055-1.641,2.141-3.137,2.8-3.985l0,0c.565-.734,13.716-18.04,13.716-25.6,0-.443-.02-.883-.06-1.318a25.216,25.216,0,0,1,2.563,11.112,25.688,25.688,0,0,1-19.272,24.677" transform="translate(-144.033 -134.224)" fill="#50a2c0"/>
      <path id="패스_24" data-name="패스 24" d="M302.966,163.457v-5a9.553,9.553,0,0,0-19.1,0v6.712a9.449,9.449,0,0,0,8.1,9.266,9.851,9.851,0,0,0,1.451.108,9.625,9.625,0,0,0,7.222-3.238l-1.93-1.639a7.056,7.056,0,0,1-5.291,2.372,7.257,7.257,0,0,1-1.061-.079,6.923,6.923,0,0,1-5.935-6.791v-1.714Zm-16.548-5a7,7,0,0,1,13.994,0v2.492H286.418Z" transform="translate(-144.033 -134.224)" fill="#50a2c0"/>
      <path id="패스_25" data-name="패스 25" d="M269.2,149.085a8.2,8.2,0,0,0-6.894,3.723,8.2,8.2,0,0,0-6.893-3.723,8.1,8.1,0,0,0-8.169,8.018v17.265h2.553V157.1a5.618,5.618,0,0,1,11.234,0v17.265h2.553V157.1a5.617,5.617,0,0,1,11.233,0v17.265h2.552V157.1a8.1,8.1,0,0,0-8.168-8.019" transform="translate(-144.033 -134.224)" fill="#50a2c0"/>
      <path id="패스_26" data-name="패스 26" d="M311.766,174.367h-2.553V157.1a8.106,8.106,0,0,1,8.169-8.019h4.651v2.5h-4.651a5.572,5.572,0,0,0-5.616,5.515Z" transform="translate(-144.033 -134.224)" fill="#50a2c0"/>
      <path id="패스_27" data-name="패스 27" d="M227.717,168.756a7.44,7.44,0,0,1-6.546,3.87,7.363,7.363,0,0,1-7.422-7.282v-7.051a7.442,7.442,0,0,1,14.27-2.792l2.236-1.226a10,10,0,0,0-19.057,4.019v7.051a9.89,9.89,0,0,0,9.972,9.785,10,10,0,0,0,8.778-5.15Z" transform="translate(-144.033 -134.224)" fill="#50a2c0"/>
      <rect id="사각형_3" data-name="사각형 3" width="2.555" height="25.336" transform="translate(92.948 14.808)" fill="#50a2c0"/>
    </g>
    <g id="Vector_Smart_Object_copy" data-name="Vector Smart Object copy" transform="translate(0 -0.88)">
      <path id="패스_28" data-name="패스 28" d="M172.054,134.224c-15.476,0-28.02,12.314-28.02,27.5s12.544,27.5,28.02,27.5,28.016-12.314,28.016-27.5-12.542-27.5-28.016-27.5m-.008,1.989c6.921,0,12.536,5.119,12.536,11.914v.331c0,2.46-1.664,6.23-3.808,10.079-1.045-4.8-7.107-12.914-7.852-13.9-.186-.245-.556-.722-.81-1.029,0,0-.581.78-.771,1.023-.761,1-6.966,9.231-7.946,14.014-2.178-3.885-3.87-7.7-3.87-10.183l-.016-.33c0-6.8,5.613-11.914,12.537-11.914m6.907,23.587a6.564,6.564,0,0,1-.725,3.006c-2.444,3.884-4.939,7.363-6.174,9.034-1-1.358-2.832-3.9-4.794-6.887-2.841-4.181-.727-9.18.307-11.126a76.814,76.814,0,0,1,4.546-6.975c2.443,3.388,6.841,10.055,6.841,12.947M153.53,143.776a23.38,23.38,0,0,1,5.794-4.4c-4.122,4.387-1.108,12.64-1.108,12.64v-.007c1.913,6.013,7.518,14.383,10.733,18.9-.679-.379-1.442-.818-2.246-1.314-20.135-12.662-13.558-25.128-13.172-25.813m-4.754,6.414-.044.117a30.75,30.75,0,0,0,2.524,6.982q.112.222.225.44c.192.364.352.642.461.832.006.009.008.015.012.022.1.17.164.273.164.273l0-.018a30.794,30.794,0,0,0,6.212,7.113c3.135,2.729,8.029,5.185,10.561,6.625-4.924-.5-11.761-1.737-16.678-4-5.637-2.774-6.146-7.675-6.174-8a25.224,25.224,0,0,1,2.74-10.383m2.15,26.465A25.292,25.292,0,0,1,147,168.667c.154.122,2.61,1.977,10.156,3.569l0,0a83.916,83.916,0,0,0,11.967,1.684c-2.461,1.443-6.112,3.769-6.954,4.2a13.451,13.451,0,0,1-1.827.764c-6.67,1.4-9.408-2.223-9.408-2.223m17.694,10.4a26.139,26.139,0,0,1-12.486-5.118c1.778.107,5.169-1.311,6.047-1.694a.163.163,0,0,0,.042-.017l.173-.078h-.013c.227-.1.45-.2.678-.317.823-.412,3.728-2.1,6.117-3.505a11.731,11.731,0,0,0-1.2,4.043l0,0a.308.308,0,0,0,0,.051.208.208,0,0,0-.006.035,15.5,15.5,0,0,0,.657,6.6m3.138-1.182a6.771,6.771,0,0,1-1.846-4.8c0-3.4,2.918-7,2.918-7l.012-.018c.276-.359,3.568-4.69,6.86-9.912a.783.783,0,0,0,.157-.207c.034-.058.055-.119.087-.18.833-1.334,1.664-2.72,2.435-4.106,8.076-13.626,3.044-19.387,1.4-20.774a25.961,25.961,0,0,1,6.181,4.239,11.912,11.912,0,0,1,1.921,2.548,12.105,12.105,0,0,1,1.74,6.269c0,6.91-13.146,24.214-13.317,24.438-.587.76-5.259,6.878-6.144,10.73a4.393,4.393,0,0,1-2.406-1.227m7.07.53c-.011-.008-1.888-1.127.254-4.88,1.055-1.641,2.141-3.137,2.8-3.985l0,0c.565-.734,13.716-18.04,13.716-25.6,0-.443-.02-.883-.06-1.318a25.216,25.216,0,0,1,2.563,11.112,25.688,25.688,0,0,1-19.272,24.677" transform="translate(-144.033 -134.224)" fill="#50a2c0"/>
      <path id="패스_29" data-name="패스 29" d="M302.966,163.457v-5a9.553,9.553,0,0,0-19.1,0v6.712a9.449,9.449,0,0,0,8.1,9.266,9.851,9.851,0,0,0,1.451.108,9.625,9.625,0,0,0,7.222-3.238l-1.93-1.639a7.056,7.056,0,0,1-5.291,2.372,7.257,7.257,0,0,1-1.061-.079,6.923,6.923,0,0,1-5.935-6.791v-1.714Zm-16.548-5a7,7,0,0,1,13.994,0v2.492H286.418Z" transform="translate(-144.033 -134.224)" fill="#50a2c0"/>
      <path id="패스_30" data-name="패스 30" d="M269.2,149.085a8.2,8.2,0,0,0-6.894,3.723,8.2,8.2,0,0,0-6.893-3.723,8.1,8.1,0,0,0-8.169,8.018v17.265h2.553V157.1a5.618,5.618,0,0,1,11.234,0v17.265h2.553V157.1a5.617,5.617,0,0,1,11.233,0v17.265h2.552V157.1a8.1,8.1,0,0,0-8.168-8.019" transform="translate(-144.033 -134.224)" fill="#50a2c0"/>
      <path id="패스_31" data-name="패스 31" d="M311.766,174.367h-2.553V157.1a8.106,8.106,0,0,1,8.169-8.019h4.651v2.5h-4.651a5.572,5.572,0,0,0-5.616,5.515Z" transform="translate(-144.033 -134.224)" fill="#50a2c0"/>
      <path id="패스_32" data-name="패스 32" d="M227.717,168.756a7.44,7.44,0,0,1-6.546,3.87,7.363,7.363,0,0,1-7.422-7.282v-7.051a7.442,7.442,0,0,1,14.27-2.792l2.236-1.226a10,10,0,0,0-19.057,4.019v7.051a9.89,9.89,0,0,0,9.972,9.785,10,10,0,0,0,8.778-5.15Z" transform="translate(-144.033 -134.224)" fill="#50a2c0"/>
      <rect id="사각형_4" data-name="사각형 4" width="2.555" height="25.336" transform="translate(92.948 14.808)" fill="#50a2c0"/>
    </g>
  </g>
</svg>
