<svg id="Layer_1" data-name="Layer 1" xmlns="http://www.w3.org/2000/svg" viewBox="0 0 66 61.86"><defs><style>.cls-1{fill:#d1d3d4;}</style></defs><title>FTG_FourStarRatingLogo_2020_Black</title><path class="cls-1" d="M388.78,44.09a8.78,8.78,0,0,0-3.42-.62c-2.85,0-4.58,1.67-4.58,3.62s1.3,2.8,3.09,3.44,2.45,1.23,2.45,2.13a1.78,1.78,0,0,1-1.89,1.78c-1.43,0-2.51-.84-3.34-3.16l-.58.15.1,3.31a11.69,11.69,0,0,0,4,.71c3,0,4.86-1.48,4.86-3.87,0-1.61-.79-2.49-2.77-3.26-2.14-.82-2.88-1.35-2.88-2.34a1.56,1.56,0,0,1,1.58-1.68c1.37,0,2.31.85,2.93,2.85l.58-.15Z" transform="translate(-323.47)"/><path class="cls-1" d="M363.67,43.6a5.94,5.94,0,0,0-2.75.71c0-2.47,0-4.62.1-5.43l-5.07,1v.45l.49.07c.71.09,1,.51,1.06,1.45.16,1.81.14,11.52,0,13.07a19.82,19.82,0,0,0,4.33.55c4,0,6.44-2.49,6.44-6.42,0-3.16-2-5.43-4.6-5.43m-1.76,11a5.38,5.38,0,0,1-.87-.08c-.08-1.09-.13-5.58-.12-9.51a3.45,3.45,0,0,1,1.18-.19c1.67,0,2.6,1.92,2.61,4.35,0,3.09-1.15,5.43-2.8,5.43" transform="translate(-323.47)"/><path class="cls-1" d="M336.82,39.24H323.48v.64l.71.1c1,.14,1.41.77,1.53,2.21a78,78,0,0,1,0,10c-.12,1.44-.51,2.07-1.53,2.22l-.71.09v.65h8.57v-.65l-.9-.09c-1-.15-1.4-.78-1.52-2.22-.09-1-.14-2.62-.16-4.56l1.77.06c1.18,0,1.67.91,1.95,2.21h.67v-5.4h-.67c-.28,1.3-.77,2.17-1.95,2.21l-1.77.06c0-2.55,0-5,.16-6.47h2.63c2.05,0,3.15,1.31,3.84,3.61l.79-.22Z" transform="translate(-323.47)"/><path class="cls-1" d="M341.15,43.47c3.79,0,5.67,2.57,5.67,6a5.66,5.66,0,0,1-5.91,6c-3.79,0-5.67-2.57-5.67-6a5.66,5.66,0,0,1,5.91-6m-.2.74c-1.67,0-2.14,2.26-2.14,5.25s.74,5.25,2.3,5.25,2.14-2.26,2.14-5.25-.74-5.25-2.3-5.25" transform="translate(-323.47)"/><path class="cls-1" d="M369.2,49.57c0-3.14,2-6.09,5.89-6.09,3.17,0,4.69,2.36,4.71,5.44h-7.09c-.08,2.8,1.33,4.85,4.05,4.85a3.65,3.65,0,0,0,2.55-.85l.33.4a5.9,5.9,0,0,1-10.44-3.75m3.53-1.45,3.56-.07c0-1.58-.23-3.83-1.51-3.83s-2,2.13-2,3.9" transform="translate(-323.47)"/><path class="cls-1" d="M356.72,43.79c-1.28-.76-3.62-.4-4.8,2.32l.06-2.65-5.05,1v.46l.49.06c.71.1,1,.51,1.06,1.46a48.42,48.42,0,0,1,0,6.6c-.08.94-.35,1.36-1.06,1.45l-.49.07v.64h7v-.64l-.92-.07c-.71-.09-1-.51-1.06-1.45a49.48,49.48,0,0,1,0-6.13c.34-.56,2-1,3.53,0Z" transform="translate(-323.47)"/><path class="cls-1" d="M327.29,58.84h-1.54v3H325v-3h-1.55v-.48h3.82Z" transform="translate(-323.47)"/><path class="cls-1" d="M329.76,61.84V58.36h2a1.33,1.33,0,0,1,1.43,1.13,1.1,1.1,0,0,1-.91,1l1.11,1.33h-.83l-1-1.22h-1.07v1.22Zm.73-1.7h1.28a.67.67,0,0,0,.7-.65.71.71,0,0,0-.74-.65h-1.24Z" transform="translate(-323.47)"/><path class="cls-1" d="M335.71,61.84l1.87-3.48h.6L340,61.84h-.77l-.5-1H337l-.49,1ZM337.88,59l-.77,1.51h1.51Z" transform="translate(-323.47)"/><path class="cls-1" d="M342.49,58.36l1.4,2.78,1.39-2.78h.78l-1.85,3.48h-.63l-1.87-3.48Z" transform="translate(-323.47)"/><path class="cls-1" d="M351.89,61.35v.49h-3.18V58.36h3.12v.48h-2.39v1h2.07v.46h-2.07v1.06Z" transform="translate(-323.47)"/><path class="cls-1" d="M354.77,61.84V58.36h.73v3H358v.49Z" transform="translate(-323.47)"/><path class="cls-1" d="M365.47,61.4A2.18,2.18,0,0,1,362,60.08a2.31,2.31,0,0,1,3.95-1l-.56.3a1.43,1.43,0,0,0-1.23-.56,1.33,1.33,0,0,0-1.42,1.27,1.37,1.37,0,0,0,1.47,1.27,1.82,1.82,0,0,0,1.27-.52v-.37h-1v-.4h1.59v1.76h-.62Z" transform="translate(-323.47)"/><path class="cls-1" d="M372.22,60.12V58.36H373v1.76c0,1-.57,1.74-2,1.74s-2-.84-2-1.74V58.36h.73v1.76a1.27,1.27,0,0,0,2.53,0Z" transform="translate(-323.47)"/><path class="cls-1" d="M376,61.84V58.36h.73v3.48Z" transform="translate(-323.47)"/><path class="cls-1" d="M379.89,61.84V58.36h1.65c1.49,0,2.26.77,2.26,1.73s-.89,1.75-2.26,1.75Zm1.65-3h-.92v2.51h.92c1,0,1.51-.54,1.51-1.26S382.5,58.84,381.54,58.84Z" transform="translate(-323.47)"/><path class="cls-1" d="M389.46,61.35v.49h-3.18V58.36h3.13v.48H387v1h2.07v.46H387v1.06Z" transform="translate(-323.47)"/><path class="cls-1" d="M364.34,27.61l6,0,2,5.35,1.91-5.34,6,0-4.91-3.84,1.87-5.62-4.88,3.35-5-3.28,1.86,5.56Z" transform="translate(-323.47)"/><path class="cls-1" d="M359.26,9.48h6l2,5.36,1.92-5.34,6,0-4.91-3.83L372.12,0l-4.88,3.35-5-3.28,1.86,5.56Z" transform="translate(-323.47)"/><path class="cls-1" d="M339.58,9.49l6,0,2,5.35,1.91-5.34,6,0-4.91-3.84L352.43,0l-4.88,3.36-5-3.28,1.86,5.56Z" transform="translate(-323.47)"/><path class="cls-1" d="M334.53,27.69l6,0,2,5.35,1.92-5.33,6-.05-4.9-3.84,1.87-5.62-4.89,3.35-5-3.28,1.85,5.56Z" transform="translate(-323.47)"/><path class="cls-1" d="M354.23,21.24h-2.51v-.57l1.15-1.27a1.46,1.46,0,0,0,.43-.82.58.58,0,0,0-.1-.37.38.38,0,0,0-.3-.12.33.33,0,0,0-.3.17.7.7,0,0,0-.12.42h-.84a1.3,1.3,0,0,1,.17-.64,1.13,1.13,0,0,1,.46-.46,1.45,1.45,0,0,1,1.55.12,1,1,0,0,1,.32.81,1.26,1.26,0,0,1-.08.43,1.81,1.81,0,0,1-.25.44,6.42,6.42,0,0,1-.53.62l-.47.57h1.42Z" transform="translate(-323.47)"/><path class="cls-1" d="M357.15,19.7a1.86,1.86,0,0,1-.33,1.18,1.13,1.13,0,0,1-.92.41,1.11,1.11,0,0,1-.93-.42,1.83,1.83,0,0,1-.33-1.17V19a1.93,1.93,0,0,1,.32-1.18,1.11,1.11,0,0,1,.93-.41,1.14,1.14,0,0,1,.93.41,1.86,1.86,0,0,1,.33,1.18Zm-.84-.8a1.37,1.37,0,0,0-.1-.61.34.34,0,0,0-.32-.2.32.32,0,0,0-.31.19,1.28,1.28,0,0,0-.11.56v1a1.52,1.52,0,0,0,.1.62.35.35,0,0,0,.33.2.34.34,0,0,0,.31-.19,1.33,1.33,0,0,0,.1-.6Z" transform="translate(-323.47)"/><path class="cls-1" d="M360.09,21.24h-2.51v-.57l1.16-1.27a1.5,1.5,0,0,0,.42-.82.58.58,0,0,0-.1-.37.36.36,0,0,0-.29-.12.35.35,0,0,0-.31.17.7.7,0,0,0-.12.42h-.84a1.3,1.3,0,0,1,.17-.64,1.13,1.13,0,0,1,.46-.46,1.35,1.35,0,0,1,.66-.17,1.3,1.3,0,0,1,.9.29,1,1,0,0,1,.31.81,1.26,1.26,0,0,1-.08.43,1.75,1.75,0,0,1-.24.44,6.82,6.82,0,0,1-.54.62l-.47.57h1.42Z" transform="translate(-323.47)"/><path class="cls-1" d="M363,19.7a1.86,1.86,0,0,1-.33,1.18,1.24,1.24,0,0,1-1.85,0,1.83,1.83,0,0,1-.33-1.17V19a1.86,1.86,0,0,1,.33-1.18,1.09,1.09,0,0,1,.92-.41,1.14,1.14,0,0,1,.93.41A1.86,1.86,0,0,1,363,19Zm-.83-.8a1.35,1.35,0,0,0-.11-.61.33.33,0,0,0-.32-.2.33.33,0,0,0-.31.19,1.3,1.3,0,0,0-.1.56v1a1.37,1.37,0,0,0,.1.62.33.33,0,0,0,.32.2.34.34,0,0,0,.31-.19,1.45,1.45,0,0,0,.11-.6Z" transform="translate(-323.47)"/></svg>