<?xml version="1.0" encoding="utf-8"?>
<!-- Generator: Adobe Illustrator 22.0.1, SVG Export Plug-In . SVG Version: 6.00 Build 0)  -->
<svg version="1.1" id="레이어_1" xmlns="http://www.w3.org/2000/svg" xmlns:xlink="http://www.w3.org/1999/xlink" x="0px"
	 y="0px" viewBox="0 0 26 26" style="enable-background:new 0 0 26 26;" xml:space="preserve">
<style type="text/css">
	.st0{fill:#FFFFFF;}
</style>
<g>
	<g>
		<g>
			<g>
				<path class="st0" d="M10.6,19.7c-0.5,0-0.9-0.4-0.9-0.9V4.2c0-1.8,1.5-3.3,3.3-3.3s3.3,1.5,3.3,3.3v3c0,0.5-0.4,0.9-0.9,0.9
					s-0.9-0.4-0.9-0.9v-3c0-0.8-0.7-1.5-1.5-1.5s-1.5,0.7-1.5,1.5v14.6C11.5,19.3,11.1,19.7,10.6,19.7z"/>
			</g>
			<g>
				<path class="st0" d="M19.3,18.8c-0.5,0-0.9-0.4-0.9-0.9V4.2c0-1.8,1.5-3.3,3.3-3.3s3.2,1.5,3.2,3.3v3c0,0.5-0.4,0.9-0.9,0.9
					s-0.9-0.4-0.9-0.9v-3c0-0.8-0.7-1.5-1.5-1.5s-1.5,0.7-1.5,1.5v13.7C20.2,18.4,19.8,18.8,19.3,18.8z"/>
			</g>
			<g>
				<path class="st0" d="M19.2,11.3h-8.6c-0.5,0-0.9-0.4-0.9-0.9s0.4-0.9,0.9-0.9h8.6c0.5,0,0.9,0.4,0.9,0.9
					C20.1,10.9,19.7,11.3,19.2,11.3z"/>
			</g>
			<g>
				<path class="st0" d="M19.2,14.9h-8.6c-0.5,0-0.9-0.4-0.9-0.9s0.4-0.9,0.9-0.9h8.6c0.5,0,0.9,0.4,0.9,0.9S19.7,14.9,19.2,14.9z"
					/>
			</g>
		</g>
		<g>
			<g>
				<path class="st0" d="M13,20.7c-1.5,0-3-0.4-4.2-1.1c-1.8-1.1-4.7-1.1-6.5,0c-0.4,0.3-1,0.1-1.2-0.3c-0.3-0.4-0.1-1,0.3-1.2
					c2.3-1.4,6-1.4,8.4,0c1.8,1.1,4.7,1.1,6.5,0c2.3-1.4,6-1.4,8.4,0c0.4,0.3,0.6,0.8,0.3,1.2c-0.3,0.4-0.8,0.6-1.2,0.3
					c-1.8-1.1-4.7-1.1-6.5,0C16.1,20.3,14.5,20.7,13,20.7z"/>
			</g>
			<g>
				<path class="st0" d="M13,25.1c-1.5,0-3-0.4-4.2-1.1c-1.8-1.1-4.7-1.1-6.5,0c-0.4,0.3-1,0.1-1.2-0.3c-0.3-0.4-0.1-1,0.3-1.2
					c2.3-1.4,6-1.4,8.4,0c1.8,1.1,4.7,1.1,6.5,0c2.3-1.4,6-1.4,8.4,0c0.4,0.3,0.6,0.8,0.3,1.2c-0.3,0.4-0.8,0.6-1.2,0.3
					c-1.9-1-4.8-1-6.6,0C16.1,24.7,14.5,25.1,13,25.1z"/>
			</g>
		</g>
	</g>
</g>
</svg>
