<svg xmlns="http://www.w3.org/2000/svg" width="150" height="58.97" viewBox="0 0 150 58.97">
  <g id="그룹_38" data-name="그룹 38" transform="translate(-250.046 -811.499)">
    <g id="WonderBox" transform="translate(250.046 811.499)">
      <path id="패스_33" data-name="패스 33" d="M254.82,183.029l-4.036-6.512a1.666,1.666,0,0,1-.218-1.352,2.531,2.531,0,0,1,.972-1.262,3.27,3.27,0,0,1-1.707-1.595,1.671,1.671,0,0,1,.232-1.489l4.278-6.781a15.623,15.623,0,0,1,2.152-2.653h-6.43c.725,1.2-.292,2.716-.925,3.658q-.1.142-.177.265l-2.868,4.324-2.987-4.319c-.078-.12-.169-.248-.269-.391-.631-.9-1.645-2.336-.956-3.538h-6.472a14.586,14.586,0,0,1,2.279,2.646l4.471,6.784a1.685,1.685,0,0,1,.265,1.508,3.173,3.173,0,0,1-1.656,1.578,2.6,2.6,0,0,1,1.015,1.278,1.644,1.644,0,0,1-.187,1.331l-3.855,6.514a14.126,14.126,0,0,1-2.447,3.258h6.547c-.485-1.092.331-2.39.944-3.365l.137-.218,3.283-5.2,3.425,5.2c.129.211.279.425.436.653.627.9,1.388,2,.9,2.936h6.41a21.71,21.71,0,0,1-2.554-3.247Z" transform="translate(-149.096 -128.451)" fill="#3e0f6d"/>
      <path id="패스_34" data-name="패스 34" d="M212.2,175.547a5.292,5.292,0,0,0-.781-.829,6.694,6.694,0,0,0-1.071-.729,9.346,9.346,0,0,0-1.779-.73l-.721-.22.721-.219c2.569-.786,3.714-2.445,3.714-5.38a6.126,6.126,0,0,0-.946-3.446,5.124,5.124,0,0,0-.487-.622,7.2,7.2,0,0,0-5.454-2.061H194.06a4.905,4.905,0,0,1,1.134,3.725v5.356a4.209,4.209,0,0,1-1.4,3.449,4.183,4.183,0,0,1,1.4,3.419V182.6a5.334,5.334,0,0,1-1.065,3.757l11.54,0c3.549,0,7.448-2.019,7.62-6.451a6.958,6.958,0,0,0-.8-3.928,4.78,4.78,0,0,0-.287-.43m-11.713-11.066h2.764a3.42,3.42,0,0,1,3.295,1.572,3.121,3.121,0,0,1,.266.656,4.7,4.7,0,0,1,.172,1.326,3.41,3.41,0,0,1-3.733,3.613h-2.764Zm3.926,18.392h-3.926v-7.821h3.926a3.217,3.217,0,0,1,2.972,1.547,3.582,3.582,0,0,1,.311.652,4.909,4.909,0,0,1,.294,1.714c0,2.483-1.3,3.908-3.577,3.908" transform="translate(-152.144 -128.456)" fill="#3e0f6d"/>
      <path id="패스_35" data-name="패스 35" d="M255.257,182.812l-4.032-6.506a1.206,1.206,0,0,1-.169-.987,2.468,2.468,0,0,1,1.126-1.224l.467-.243-.5-.177c-.015-.006-1.514-.551-1.838-1.488a1.221,1.221,0,0,1,.187-1.1l4.275-6.778a13.731,13.731,0,0,1,2.482-2.931v-.431h-7.79v.391l0,0c.922.91.174,2.212-.671,3.469-.065.1-.125.187-.179.27l-2.491,3.754-2.594-3.752c-.077-.118-.171-.253-.274-.4-.66-.937-1.657-2.353-.705-3.346v-.388H234.7v.427a12.987,12.987,0,0,1,2.655,2.935l4.468,6.782a1.231,1.231,0,0,1,.214,1.11c-.306.923-1.773,1.463-1.787,1.469l-.5.179.469.241a2.56,2.56,0,0,1,1.169,1.245,1.186,1.186,0,0,1-.142.967l-3.856,6.514a11.053,11.053,0,0,1-2.8,3.511v.438h7.861v-.407c-.655-.9.133-2.16.771-3.175l3.036-4.812,3.027,4.593c.134.215.286.435.447.666.81,1.165,1.332,2.045.672,2.733v.4h7.732v-.442a16.863,16.863,0,0,1-2.882-3.517m-4.243,3.5c.487-.94-.273-2.035-.9-2.937-.158-.227-.307-.44-.437-.652l-3.425-5.2-3.283,5.2-.136.218c-.613.975-1.43,2.273-.945,3.365h-6.547a14.207,14.207,0,0,0,2.447-3.259l3.855-6.514a1.646,1.646,0,0,0,.186-1.331,2.616,2.616,0,0,0-1.013-1.279,3.162,3.162,0,0,0,1.655-1.577,1.679,1.679,0,0,0-.266-1.508l-4.469-6.784a14.71,14.71,0,0,0-2.279-2.647h6.472c-.69,1.2.324,2.642.955,3.539.1.142.191.271.269.391l2.987,4.32,2.868-4.325c.053-.082.114-.171.178-.266.633-.941,1.65-2.452.925-3.658h6.431a15.63,15.63,0,0,0-2.152,2.654l-4.278,6.781a1.671,1.671,0,0,0-.232,1.49,3.263,3.263,0,0,0,1.707,1.594,2.527,2.527,0,0,0-.972,1.262,1.657,1.657,0,0,0,.217,1.352l4.036,6.513,0,.006a21.713,21.713,0,0,0,2.555,3.248Z" transform="translate(-149.14 -128.479)" fill="#c08d4e"/>
      <path id="패스_36" data-name="패스 36" d="M212.621,175.3v0a5.671,5.671,0,0,0-.852-.9,7.1,7.1,0,0,0-1.146-.782,9.05,9.05,0,0,0-1.227-.551c2.316-.926,3.4-2.72,3.4-5.594a6.589,6.589,0,0,0-1.021-3.7,5.639,5.639,0,0,0-.531-.677,7.647,7.647,0,0,0-5.8-2.211H193.631v.652c1.17.954,1.161,2.548,1.154,3.532l0,5.353a3.636,3.636,0,0,1-1.467,3.258l-.322.2.322.195a3.613,3.613,0,0,1,1.467,3.229v5.34a4.828,4.828,0,0,1-1.152,3.675v.538l12.09,0c4.6,0,7.924-2.835,8.082-6.893a7.392,7.392,0,0,0-.868-4.179,5.2,5.2,0,0,0-.314-.47m.719,4.632c-.172,4.433-4.07,6.452-7.62,6.452l-11.54,0a5.334,5.334,0,0,0,1.064-3.757v-5.342a4.18,4.18,0,0,0-1.4-3.419,4.211,4.211,0,0,0,1.4-3.449v-5.355a4.909,4.909,0,0,0-1.134-3.728h11.334a7.2,7.2,0,0,1,5.454,2.06,5.226,5.226,0,0,1,.487.623,6.126,6.126,0,0,1,.946,3.446c0,2.935-1.145,4.594-3.714,5.379l-.721.22.721.219a9.441,9.441,0,0,1,1.779.73,6.662,6.662,0,0,1,1.071.73,5.21,5.21,0,0,1,.781.828,4.7,4.7,0,0,1,.287.43,6.96,6.96,0,0,1,.8,3.928" transform="translate(-152.199 -128.484)" fill="#c08d4e"/>
      <path id="패스_37" data-name="패스 37" d="M206.571,167.839a4.727,4.727,0,0,0-.173-1.326,3.111,3.111,0,0,0-.266-.655,3.421,3.421,0,0,0-3.295-1.572h-2.764v7.167h2.764a3.411,3.411,0,0,0,3.734-3.614m-6.036-3.093h2.3a3,3,0,0,1,2.89,1.333,2.712,2.712,0,0,1,.227.561,4.277,4.277,0,0,1,.154,1.2,2.971,2.971,0,0,1-3.271,3.153h-2.3Z" transform="translate(-151.716 -128.373)" fill="#c08d4e"/>
      <path id="패스_38" data-name="패스 38" d="M206.971,175.753A3.217,3.217,0,0,0,204,174.207h-3.926v7.821H204c2.273,0,3.577-1.425,3.577-3.909a4.91,4.91,0,0,0-.294-1.714,3.6,3.6,0,0,0-.311-.652M204,181.569h-3.465v-6.9H204a2.765,2.765,0,0,1,2.575,1.323,3.034,3.034,0,0,1,.274.574,4.448,4.448,0,0,1,.266,1.555c0,2.225-1.107,3.45-3.115,3.45" transform="translate(-151.714 -127.611)" fill="#c08d4e"/>
      <path id="패스_39" data-name="패스 39" d="M182.5,135.851l-3.827,10.5-3.926-10.531c-.042-.177-.109-.384-.179-.6a4.3,4.3,0,0,1-.046-3.436h-6.828a13.809,13.809,0,0,1,2.035,3.911c.011.029,1.348,3.622,1.849,5.029l.033.088-2.777,5.94-6.6-14.967h-6.446a9.99,9.99,0,0,1,2.551,3.891l2.453,5.623a2.763,2.763,0,0,1-.3,2.941,4.731,4.731,0,0,1,2.7,2.578l2.585,5.946c.509,1.457.92,2.634-.26,4.065h6.048a3.293,3.293,0,0,1-.551-3.774l2.8-6.346.195.546c.856,2.4,2.028,5.562,2.041,5.593l.039.119a4.225,4.225,0,0,1-.1,3.862h6.187a4.166,4.166,0,0,1-.445-4.053l2.149-5.972a4.248,4.248,0,0,1,2.491-2.553,2.851,2.851,0,0,1-.52-2.92l2.028-5.635c.053-.157.1-.316.157-.477a11.285,11.285,0,0,1,1.562-3.432h-7.055c.773,1.288.322,3.061-.046,4.063" transform="translate(-154.93 -130.755)" fill="#3e0f6d"/>
      <path id="패스_40" data-name="패스 40" d="M236.93,135.7v5.16a4.2,4.2,0,0,1-1.4,3.448,4.189,4.189,0,0,1,1.4,3.42v5.342a5.345,5.345,0,0,1-1.064,3.763h8.29a9.377,9.377,0,0,0,6.823-2.427c.167-.164.323-.33.46-.493a10.461,10.461,0,0,0,2.3-5.744c.032-.277.059-.569.081-.892l.018-.181a3.615,3.615,0,0,1,1.365-2.787,3.607,3.607,0,0,1-1.365-2.787h0l-.018-.179c-.022-.324-.048-.615-.081-.893a10.46,10.46,0,0,0-2.3-5.741c-.139-.166-.294-.332-.462-.5a9.373,9.373,0,0,0-6.823-2.434H235.8a4.908,4.908,0,0,1,1.134,3.727Zm5.235-.59H243.7a4.544,4.544,0,0,1,3.771,1.383c.064.077.129.162.2.265.083.121.154.235.219.351a8.342,8.342,0,0,1,.878,3.535,4.156,4.156,0,0,1-1.382,3.635,4.141,4.141,0,0,1,1.382,3.62,8.35,8.35,0,0,1-.88,3.551c-.064.114-.135.23-.217.349s-.138.19-.2.266a4.542,4.542,0,0,1-3.771,1.391h-1.537Z" transform="translate(-149.091 -130.755)" fill="#3e0f6d"/>
      <path id="패스_41" data-name="패스 41" d="M205.82,154.9h0a6.839,6.839,0,0,0,.459-.515,11.2,11.2,0,0,0,2.307-6.008c.031-.287.058-.592.08-.933l.018-.183a3.812,3.812,0,0,1,1.376-2.917,3.812,3.812,0,0,1-1.376-2.916h0l-.017-.184c-.022-.341-.049-.647-.08-.933a11.2,11.2,0,0,0-2.3-6,6.867,6.867,0,0,0-.461-.518,10.412,10.412,0,0,0-13.639,0,6.693,6.693,0,0,0-.459.515,11.2,11.2,0,0,0-2.306,6.008c-.032.29-.059.593-.081.933l-.018.183a3.813,3.813,0,0,1-1.376,2.917,3.813,3.813,0,0,1,1.376,2.917h0l.017.183c.022.339.049.644.081.933a11.2,11.2,0,0,0,2.3,6,6.623,6.623,0,0,0,.461.519,10.413,10.413,0,0,0,13.639,0m-9.809-2.179c-.055-.09-.106-.186-.155-.285-.065-.129-.12-.252-.17-.376a12.485,12.485,0,0,1-.676-3.79c-.007-.948-.02-2.837,1.4-3.926-1.423-1.089-1.41-2.977-1.4-3.914a12.512,12.512,0,0,1,.678-3.8c.048-.122.1-.245.169-.375.049-.1.1-.195.155-.285a3.7,3.7,0,0,1,5.98,0c.054.09.1.186.154.284.065.129.12.253.169.376a12.468,12.468,0,0,1,.677,3.789c.007.948.021,2.838-1.4,3.927,1.423,1.089,1.409,2.977,1.4,3.914a12.49,12.49,0,0,1-.678,3.8c-.048.124-.1.247-.169.375-.049.1-.1.195-.155.285a3.7,3.7,0,0,1-5.979,0" transform="translate(-152.567 -130.79)" fill="#3e0f6d"/>
      <path id="패스_42" data-name="패스 42" d="M213.373,135.7v5.16a4.208,4.208,0,0,1-1.4,3.449,4.187,4.187,0,0,1,1.4,3.42v5.342a5.332,5.332,0,0,1-1.064,3.758h6.783a5.333,5.333,0,0,1-1.065-3.758V139.827l3.4,9.617c.181.446.35.871.508,1.269.983,2.475,1.524,3.837,2.732,4.953a7.6,7.6,0,0,0,5.55,1.722,13.129,13.129,0,0,0,2.656-.409c-1.644-1.195-1.643-3.35-1.643-4.1v-5.169a4.173,4.173,0,0,1,1.4-3.4,4.143,4.143,0,0,1-1.4-3.367v-5.4a5.337,5.337,0,0,1,1.064-3.758h-6.783a5.33,5.33,0,0,1,1.064,3.758v13.74l-.446-1.143c-.022-.056-2.211-5.668-3.166-8.729a33.572,33.572,0,0,0-2.213-5.317,4.141,4.141,0,0,0-3.926-2.308h-4.584a4.907,4.907,0,0,1,1.132,3.728Z" transform="translate(-150.81 -130.755)" fill="#3e0f6d"/>
      <path id="패스_43" data-name="패스 43" d="M268.865,135.7a4.446,4.446,0,0,0,3.386-1.215,4.207,4.207,0,0,0,1.029-2.705H257.345a4.907,4.907,0,0,1,1.133,3.727v5.355a4.206,4.206,0,0,1-1.4,3.448,4.19,4.19,0,0,1,1.4,3.42v5.342a5.287,5.287,0,0,1-1.064,3.732h15.866a4.253,4.253,0,0,0-1.036-2.731,4.443,4.443,0,0,0-3.379-1.214h-5.157v-6.553h4.234a4.832,4.832,0,0,1,3.137.774,4.789,4.789,0,0,1,.03-.8,2.866,2.866,0,0,1,1.632-2.062,2.722,2.722,0,0,1-1.632-1.983,5.152,5.152,0,0,1-.03-.859,3.34,3.34,0,0,1-2.6.746c-.167,0-.345-.007-.54-.007h-4.234V135.7Z" transform="translate(-147.535 -130.755)" fill="#3e0f6d"/>
      <path id="패스_44" data-name="패스 44" d="M190.294,131.357h-8.319v.385c.984,1.118.512,2.973.143,3.98l-3.4,9.328-3.475-9.316c-.047-.19-.114-.4-.185-.621a3.707,3.707,0,0,1,.056-3.313v-.442h-8.1v.394l.021.015c1.249.985,2.3,4.076,2.313,4.115s1.294,3.479,1.818,4.94l-2.265,4.847-6.315-14.311h-7.6v.4l.027.016c1.2.783,1.919,1.782,2.954,4.114l2.452,5.621a2.3,2.3,0,0,1-.412,2.671l-.239.233.3.139c1.774.817,2.319,1.474,2.752,2.476l2.558,5.869.016.045c.54,1.549.9,2.573-.51,3.981l-.048.048v.343h7.5v-.356l-.034-.034a2.972,2.972,0,0,1-.813-3.667l2.329-5.276c.83,2.306,1.836,5.023,1.845,5.045l.037.113c.4,1.2.775,2.339-.271,3.815L175.4,157v.319h7.5v-.383l-.005,0a3.623,3.623,0,0,1-.678-3.975l2.148-5.966c.355-.98.846-1.626,2.542-2.435l.309-.147-.253-.231a2.416,2.416,0,0,1-.626-2.663l2.029-5.637,0-.005c.053-.158.106-.32.158-.482a9.353,9.353,0,0,1,1.764-3.609Zm-2.2,3.891-.157.478-2.029,5.635a2.852,2.852,0,0,0,.522,2.92,4.251,4.251,0,0,0-2.492,2.553l-2.149,5.972a4.169,4.169,0,0,0,.446,4.055h-6.188a4.231,4.231,0,0,0,.1-3.864l-.04-.119c-.011-.03-1.184-3.195-2.041-5.592l-.194-.547-2.8,6.348a3.293,3.293,0,0,0,.551,3.774h-6.049c1.181-1.432.77-2.607.261-4.065l-2.586-5.945a4.729,4.729,0,0,0-2.7-2.579,2.764,2.764,0,0,0,.3-2.942l-2.453-5.622a9.992,9.992,0,0,0-2.551-3.892h6.446l6.6,14.968,2.776-5.94-.032-.088c-.5-1.409-1.838-5-1.849-5.028a13.849,13.849,0,0,0-2.035-3.912h6.828a4.3,4.3,0,0,0,.047,3.437c.07.218.136.423.178.6l3.927,10.531,3.827-10.5c.367-1,.819-2.775.046-4.064h7.055a11.271,11.271,0,0,0-1.562,3.433" transform="translate(-154.982 -130.783)" fill="#c08d4e"/>
      <path id="패스_45" data-name="패스 45" d="M236.519,147.765v5.341a4.784,4.784,0,0,1-1.243,3.776v.443h8.931a9.826,9.826,0,0,0,7.147-2.559c.179-.175.344-.353.488-.524a10.906,10.906,0,0,0,2.41-5.988c.027-.232.05-.474.07-.736l.017-.181a3.125,3.125,0,0,1,1.454-2.8l.339-.2-.339-.2a3.123,3.123,0,0,1-1.454-2.8l-.015-.183h0c-.021-.261-.043-.5-.07-.734a10.9,10.9,0,0,0-2.408-5.985,6.917,6.917,0,0,0-.49-.528,9.822,9.822,0,0,0-7.147-2.566H235.12v.473c1.419.92,1.41,2.662,1.4,3.711l0,5.354a3.631,3.631,0,0,1-1.468,3.257l-.322.2.322.2a3.609,3.609,0,0,1,1.467,3.227m.463-6.872v-5.16l0-.194a4.906,4.906,0,0,0-1.133-3.727h8.356a9.378,9.378,0,0,1,6.823,2.434c.169.165.323.33.462.5a10.449,10.449,0,0,1,2.3,5.741c.033.278.059.57.081.893l.017.18h0a3.614,3.614,0,0,0,1.365,2.787,3.618,3.618,0,0,0-1.365,2.787l-.018.181c-.022.322-.048.614-.081.891a10.445,10.445,0,0,1-2.3,5.743,6.744,6.744,0,0,1-.46.494,9.374,9.374,0,0,1-6.823,2.428h-8.289a5.345,5.345,0,0,0,1.064-3.763v-5.342a4.189,4.189,0,0,0-1.4-3.42,4.2,4.2,0,0,0,1.4-3.449" transform="translate(-149.141 -130.783)" fill="#c08d4e"/>
      <path id="패스_46" data-name="패스 46" d="M247.065,151.865c.064-.076.128-.16.2-.265a4.063,4.063,0,0,0,.219-.35,8.393,8.393,0,0,0,.88-3.55,4.141,4.141,0,0,0-1.384-3.62,4.156,4.156,0,0,0,1.384-3.635,8.378,8.378,0,0,0-.879-3.535,4.037,4.037,0,0,0-.219-.351c-.074-.105-.137-.189-.2-.265a4.545,4.545,0,0,0-3.771-1.385h-1.538v18.347h1.538a4.541,4.541,0,0,0,3.771-1.391m-4.846-16.5h1.076a4.134,4.134,0,0,1,3.417,1.217c.061.075.12.153.175.234a3.559,3.559,0,0,1,.2.313,7.9,7.9,0,0,1,.82,3.328c.007.9.021,2.583-1.462,3.418l-.355.2.355.2c1.483.835,1.47,2.514,1.463,3.4a7.915,7.915,0,0,1-.822,3.344,3.456,3.456,0,0,1-.194.312c-.056.08-.114.159-.177.234a4.129,4.129,0,0,1-3.416,1.224h-1.076Z" transform="translate(-148.696 -130.55)" fill="#c08d4e"/>
      <path id="패스_47" data-name="패스 47" d="M206.2,155.254c.178-.181.343-.367.487-.547a11.655,11.655,0,0,0,2.407-6.246c.027-.243.05-.5.07-.77l.018-.186a3.311,3.311,0,0,1,1.456-2.931l.322-.2-.322-.2a3.313,3.313,0,0,1-1.456-2.931l-.016-.186h0c-.02-.275-.043-.528-.07-.771a11.655,11.655,0,0,0-2.4-6.242,7.318,7.318,0,0,0-.49-.55,10.872,10.872,0,0,0-14.3,0,7.248,7.248,0,0,0-.487.547,11.645,11.645,0,0,0-2.407,6.245c-.027.245-.05.5-.07.771l-.018.186a3.312,3.312,0,0,1-1.456,2.931l-.322.2.322.2a3.31,3.31,0,0,1,1.456,2.931l.016.185h0c.02.273.043.527.07.771a11.645,11.645,0,0,0,2.4,6.243,7.345,7.345,0,0,0,.489.549,10.873,10.873,0,0,0,14.3,0m-14.431-.84a11.193,11.193,0,0,1-2.3-6c-.033-.29-.059-.6-.081-.932l-.017-.185h0a3.818,3.818,0,0,0-1.377-2.917,3.816,3.816,0,0,0,1.377-2.917l.018-.184c.022-.337.048-.642.081-.931a11.193,11.193,0,0,1,2.306-6.008,6.716,6.716,0,0,1,.46-.516,10.417,10.417,0,0,1,13.638,0,6.831,6.831,0,0,1,.461.518,11.2,11.2,0,0,1,2.3,6.005c.032.287.059.592.081.931l.017.185h0a3.812,3.812,0,0,0,1.376,2.915,3.815,3.815,0,0,0-1.376,2.917l-.018.185c-.022.338-.049.644-.081.932a11.2,11.2,0,0,1-2.306,6.006,6.506,6.506,0,0,1-.459.516h0a10.414,10.414,0,0,1-13.638,0,6.534,6.534,0,0,1-.462-.519" transform="translate(-152.622 -130.818)" fill="#c08d4e"/>
      <path id="패스_48" data-name="패스 48" d="M201.557,152.529c.054-.09.1-.187.154-.285.064-.128.12-.251.168-.375a12.481,12.481,0,0,0,.678-3.8c.007-.936.021-2.824-1.4-3.913,1.423-1.089,1.41-2.98,1.4-3.928a12.468,12.468,0,0,0-.677-3.789c-.048-.124-.1-.248-.169-.377-.05-.1-.1-.194-.154-.284a3.7,3.7,0,0,0-5.98,0c-.055.091-.106.186-.155.285-.065.129-.121.253-.169.375a12.5,12.5,0,0,0-.677,3.8c-.007.937-.02,2.826,1.4,3.915-1.423,1.089-1.41,2.978-1.4,3.926a12.494,12.494,0,0,0,.675,3.789c.05.125.105.248.17.376.05.1.1.195.155.285a3.7,3.7,0,0,0,5.98,0m-5.584-.236h0c-.048-.08-.093-.165-.137-.253-.059-.117-.109-.228-.154-.342a12.057,12.057,0,0,1-.645-3.635c-.005-.981-.019-2.808,1.47-3.715l.323-.195-.323-.2c-1.489-.907-1.475-2.733-1.471-3.7a12.1,12.1,0,0,1,.646-3.65c.043-.111.095-.22.153-.338.044-.089.089-.175.138-.254a3.238,3.238,0,0,1,5.187,0c.049.08.093.165.139.254.058.117.108.227.153.341a12.069,12.069,0,0,1,.645,3.634c.007.982.019,2.808-1.469,3.716l-.323.2.323.195c1.489.907,1.476,2.734,1.469,3.7a12.093,12.093,0,0,1-.645,3.649c-.045.112-.1.224-.153.34-.046.088-.09.173-.139.254a3.239,3.239,0,0,1-5.187,0" transform="translate(-152.111 -130.593)" fill="#c08d4e"/>
      <path id="패스_49" data-name="패스 49" d="M212.962,147.765v5.341a4.779,4.779,0,0,1-1.242,3.77v.443h8.122v-.383l-.011-.011a4.758,4.758,0,0,1-1.29-3.82l0-.234V142.548l2.506,7.088c.183.455.352.878.51,1.276.974,2.452,1.562,3.934,2.848,5.12a7.685,7.685,0,0,0,5.347,1.857c.182,0,.365-.006.551-.014a12.882,12.882,0,0,0,3.212-.559v-.481c-1.767-.994-1.771-3.192-1.771-3.923v-5.163a3.592,3.592,0,0,1,1.466-3.211l.321-.2-.321-.2a3.575,3.575,0,0,1-1.466-3.177v-5.4a4.791,4.791,0,0,1,1.22-3.747v-.468h-8.033v.452a4.78,4.78,0,0,1,1.235,3.762v11.277c-.695-1.812-2.023-5.342-2.71-7.542a33.96,33.96,0,0,0-2.247-5.4,4.569,4.569,0,0,0-4.332-2.55h-5.364v.438c1.471.911,1.459,2.684,1.451,3.745v5.355a3.63,3.63,0,0,1-1.468,3.257l-.322.2.322.2a3.61,3.61,0,0,1,1.467,3.227m.463-6.872v-5.354a4.906,4.906,0,0,0-1.132-3.727h4.584a4.141,4.141,0,0,1,3.926,2.308,33.536,33.536,0,0,1,2.213,5.317c.954,3.062,3.143,8.672,3.165,8.729l.446,1.143V135.568a5.328,5.328,0,0,0-1.064-3.756h6.783a5.333,5.333,0,0,0-1.064,3.757v5.406a4.14,4.14,0,0,0,1.4,3.367,4.17,4.17,0,0,0-1.4,3.4v5.169c0,.746,0,2.9,1.644,4.1a13.162,13.162,0,0,1-2.656.41,7.6,7.6,0,0,1-5.55-1.721c-1.209-1.117-1.75-2.479-2.733-4.953-.158-.4-.326-.824-.508-1.269l-3.4-9.617V153.1a5.335,5.335,0,0,0,1.064,3.758H212.36a5.335,5.335,0,0,0,1.064-3.758v-5.342a4.185,4.185,0,0,0-1.4-3.42,4.207,4.207,0,0,0,1.4-3.449" transform="translate(-150.863 -130.783)" fill="#c08d4e"/>
      <path id="패스_50" data-name="패스 50" d="M273.391,144.452l.425-.207-.425-.206c-1.329-.646-1.671-1.206-1.774-1.848a7.643,7.643,0,0,1,0-1.287l.048-.578-.433.389a3.017,3.017,0,0,1-2.69.976c-.17,0-.351-.007-.549-.007h-3.771V136.19h4.694a4.882,4.882,0,0,0,3.727-1.364,4.678,4.678,0,0,0,1.146-3.261l-.014-.214H256.74v.523c1.344.932,1.337,2.631,1.329,3.661l0,5.355a3.633,3.633,0,0,1-1.468,3.257l-.322.2.322.2a3.612,3.612,0,0,1,1.467,3.228v5.341a4.71,4.71,0,0,1-1.165,3.664v.525h16.874l.014-.214a4.718,4.718,0,0,0-1.153-3.288,4.879,4.879,0,0,0-3.72-1.362h-4.694V146.8h3.786a4.17,4.17,0,0,1,3.229.983l.429.371-.048-.564a6.963,6.963,0,0,1,0-1.2c.093-.574.377-1.251,1.774-1.93m-2.23,1.857a4.785,4.785,0,0,0-.031.8,4.83,4.83,0,0,0-3.136-.774h-4.233v6.553h5.156A4.44,4.44,0,0,1,272.3,154.1a4.249,4.249,0,0,1,1.036,2.731H257.465a5.283,5.283,0,0,0,1.064-3.732v-5.342a4.187,4.187,0,0,0-1.4-3.419,4.2,4.2,0,0,0,1.4-3.448v-5.161l0-.194a4.907,4.907,0,0,0-1.133-3.727h15.934a4.212,4.212,0,0,1-1.028,2.705,4.447,4.447,0,0,1-3.387,1.215h-5.156v6.411h4.233c.195,0,.374,0,.54.008a3.339,3.339,0,0,0,2.6-.746,5.085,5.085,0,0,0,.031.859,2.719,2.719,0,0,0,1.631,1.983,2.864,2.864,0,0,0-1.631,2.062" transform="translate(-147.586 -130.783)" fill="#c08d4e"/>
      <path id="패스_51" data-name="패스 51" d="M296.135,156.578a3.327,3.327,0,0,1-1.3-1.623l-.024.01h0l.023-.009-.025-.069a5.389,5.389,0,0,1-.226-.767,28.96,28.96,0,0,1-.564-3.4,12.821,12.821,0,0,0-1.148-4.741,5.508,5.508,0,0,0-3.119-2.323,5.93,5.93,0,0,0,3.521-2.442v0a4.123,4.123,0,0,0,.2-.379c0-.006,0-.013.007-.017.057-.127.11-.257.157-.392.005-.012.008-.025.013-.037q.067-.194.121-.4c.006-.028.011-.057.018-.086.031-.124.059-.25.081-.382.01-.047.015-.1.022-.147.018-.116.036-.231.048-.353.009-.078.014-.161.02-.241.007-.1.018-.191.023-.292.009-.183.014-.372.014-.568a6.807,6.807,0,0,0-.943-3.607,6.927,6.927,0,0,0-.425-.6,6.748,6.748,0,0,0-5.333-2.354H275.334v.5c1.371.928,1.362,2.641,1.356,3.677l0,5.354a3.629,3.629,0,0,1-1.467,3.256l-.323.2.323.2a3.614,3.614,0,0,1,1.467,3.228v5.341a4.827,4.827,0,0,1-1.154,3.677v.538h8.359v-.636a4.879,4.879,0,0,1-1.06-3.579v-7.185c.125,0,.277,0,.453.006.195.008.389.025.58.05a4.03,4.03,0,0,1,2.576,1.215c1.069,1.268,1.276,3.147,1.475,4.964s.393,3.557,1.451,4.611a4.434,4.434,0,0,0,3.264,1.225c.2,0,.4-.009.61-.027l.08-.008c.4-.044.81-.109,1.221-.194a14.067,14.067,0,0,0,1.493-.4l.163-.054v-.69Zm-1.682.755c-.362.075-.758.142-1.18.188l-.075.007a4.247,4.247,0,0,1-3.518-1.072c-1.953-1.946-.656-6.886-2.9-9.546a4.418,4.418,0,0,0-2.854-1.369c-.221-.028-.43-.044-.619-.052a7.256,7.256,0,0,0-.76,0l-.175.015V153.1a5.346,5.346,0,0,0,1.064,3.758h-7.349a5.326,5.326,0,0,0,1.064-3.758V147.76a4.183,4.183,0,0,0-1.4-3.419,4.2,4.2,0,0,0,1.4-3.448v-5.356a4.9,4.9,0,0,0-1.132-3.726H287.3a5.833,5.833,0,0,1,6.241,6.1c0,.2-.005.387-.014.57-.005.073-.012.14-.018.211a6.729,6.729,0,0,1-.186,1.183c-.008.028-.013.058-.02.086-.043.147-.089.291-.142.428-.031.083-.07.159-.106.237a3.814,3.814,0,0,1-.194.368c-.03.051-.057.1-.089.154h0c-.047.073-.1.139-.154.208-.034.043-.063.088-.1.13a4.115,4.115,0,0,1-.294.314c-.105.1-.216.2-.335.288s-.263.192-.406.283c-.126.08-.258.158-.4.234a8.444,8.444,0,0,1-.992.444c-.12.045-.25.088-.377.131-.065.022-.126.046-.194.067-.028.01-.059.017-.087.026-.173.055-.351.109-.536.161l-.041.012-.194.053-.926.246h.1l.052,0h.006l.039,0h0l.071.005h.007l.05,0h0c.029,0,.058,0,.089.008h.006l.059.006h.007l.1.011h.007l.065.009h.01l.118.016h.006l.073.012.018,0,.125.022h.011c.071.013.145.028.221.044h.01a5.335,5.335,0,0,1,3.506,2.3c1.064,1.728.961,5.269,1.661,8.023a5.77,5.77,0,0,0,.241.816l.011.03c.005.016.011.03.017.046a3.773,3.773,0,0,0,1.467,1.829,13.24,13.24,0,0,1-1.444.386" transform="translate(-146.199 -130.783)" fill="#c08d4e"/>
      <path id="패스_52" data-name="패스 52" d="M287.595,136.947a3.13,3.13,0,0,0-.274-.656,3.327,3.327,0,0,0-3.088-1.559h-2.32v7.114h2.32a3.4,3.4,0,0,0,3.546-3.556,4.588,4.588,0,0,0-.183-1.343m-3.363,4.439h-1.858v-6.194h1.858a2.907,2.907,0,0,1,2.684,1.321,2.718,2.718,0,0,1,.236.564,4.147,4.147,0,0,1,.165,1.212,2.962,2.962,0,0,1-3.084,3.1" transform="translate(-145.74 -130.562)" fill="#c08d4e"/>
      <path id="패스_53" data-name="패스 53" d="M294.378,155.09c-.006-.015-.011-.031-.018-.046s-.007-.02-.01-.031a5.618,5.618,0,0,1-.241-.815c-.7-2.754-.6-6.295-1.661-8.023a5.338,5.338,0,0,0-3.505-2.3h0l-.006,0-.221-.043H288.7l-.125-.021-.017,0-.073-.012h-.007c-.041-.006-.079-.012-.118-.016l-.009,0-.066-.009h-.006l-.105-.012h-.006l-.059-.006H288.1l-.088-.007h-.006l-.05,0h-.006c-.026,0-.05,0-.072-.005h0l-.04,0h-.006l-.052,0h-.1l.926-.247.194-.053.041-.012c.186-.052.363-.107.536-.161l.087-.027h0c.067-.022.128-.045.193-.067.127-.043.257-.087.378-.133h0q.272-.1.52-.214c.053-.024.1-.049.152-.073.109-.052.219-.1.319-.156.141-.075.273-.152.4-.233l.026-.015h0c.017-.01.031-.022.047-.033.115-.075.227-.152.33-.233h0c.118-.093.229-.189.335-.289h0a3.983,3.983,0,0,0,.293-.313h0c.035-.043.064-.088.1-.13.052-.069.107-.135.154-.207h0c.032-.05.06-.1.09-.155.041-.069.086-.137.124-.21v0c.026-.05.046-.1.069-.154.036-.079.075-.156.106-.239h0c.053-.137.1-.278.14-.424v0c.007-.028.012-.058.019-.086.031-.121.062-.243.086-.371v0c.01-.057.017-.119.027-.177l.005-.037c.014-.092.03-.181.042-.277v0c.011-.1.018-.211.026-.316,0-.071.012-.139.017-.212v0c.009-.182.014-.372.014-.567a5.836,5.836,0,0,0-6.241-6.1H275.966a4.906,4.906,0,0,1,1.134,3.725l0,.195v5.161a4.2,4.2,0,0,1-1.4,3.448,4.18,4.18,0,0,1,1.4,3.418v5.343a5.331,5.331,0,0,1-1.064,3.758h7.349a5.337,5.337,0,0,1-1.064-3.758v-7.6l.175-.014a7.155,7.155,0,0,1,.76-.006c.188.009.4.024.619.053a4.416,4.416,0,0,1,2.854,1.368c2.246,2.66.948,7.6,2.9,9.547a4.244,4.244,0,0,0,3.517,1.072l.075-.007c.422-.046.819-.113,1.18-.188a13.432,13.432,0,0,0,1.444-.385,3.766,3.766,0,0,1-1.467-1.83m-12.059-13.051v-7.113h2.32a3.328,3.328,0,0,1,3.089,1.558,3.2,3.2,0,0,1,.274.656,4.6,4.6,0,0,1,.184,1.342,3.4,3.4,0,0,1-3.547,3.557Z" transform="translate(-146.147 -130.755)" fill="#3e0f6d"/>
      <path id="패스_54" data-name="패스 54" d="M235.025,177.933c.032-.29.059-.595.081-.933l.017-.183A3.81,3.81,0,0,1,236.5,173.9a3.812,3.812,0,0,1-1.377-2.918h0l-.012-.122,0-.061c-.023-.339-.049-.644-.081-.932a14.379,14.379,0,0,0-.521-2.588,9.793,9.793,0,0,0-1.733-3.35c-.017-.022-.032-.045-.05-.065q-.1-.133-.22-.261c-.076-.087-.157-.173-.241-.258-.1-.106-.21-.207-.317-.307a9.3,9.3,0,0,0-6.5-2.237,9.675,9.675,0,0,0-5.823,1.682,7.834,7.834,0,0,0-1,.862,6.468,6.468,0,0,0-.459.516,11.191,11.191,0,0,0-2.306,6.007c-.013.116-.025.237-.036.361-.015.164-.029.336-.042.517,0,.019,0,.036,0,.054l-.017.184a4.251,4.251,0,0,1-.832,2.386,3.072,3.072,0,0,1-.545.531,3.088,3.088,0,0,1,.545.53,4.257,4.257,0,0,1,.832,2.386l.017.184c.014.205.029.393.046.575.011.122.023.244.036.359a11.2,11.2,0,0,0,2.3,6c.089.112.188.223.29.334.056.061.112.122.172.184a7.975,7.975,0,0,0,2.846,1.863,10.948,10.948,0,0,0,3.973.68,9.3,9.3,0,0,0,6.5-2.236c.108-.1.214-.2.317-.307.084-.087.165-.172.241-.258s.149-.172.217-.257a11.2,11.2,0,0,0,2.306-6.008m-7.261-5.527.739,10.178h0a.344.344,0,0,1-.343.343h-5.437a.344.344,0,0,1-.343-.343h0l.735-10.178a4.505,4.505,0,0,1-2.31-3.916,4.591,4.591,0,0,1,4.638-4.533,4.675,4.675,0,0,1,3.172,1.226,4.468,4.468,0,0,1-.848,7.223" transform="translate(-150.629 -128.489)" fill="#3e0f6d"/>
      <path id="패스_55" data-name="패스 55" d="M237.082,173.732a3.314,3.314,0,0,1-1.457-2.931l-.015-.185h0c-.02-.275-.043-.529-.071-.772a11.639,11.639,0,0,0-2.4-6.242c-.147-.183-.312-.37-.49-.551a10.874,10.874,0,0,0-14.3,0,7.049,7.049,0,0,0-.489.548,11.634,11.634,0,0,0-2.406,6.244c-.027.241-.05.5-.071.771l-.018.186a3.313,3.313,0,0,1-1.456,2.931l-.322.2.322.2a3.315,3.315,0,0,1,1.456,2.932l.016.185h0c.021.275.043.529.071.772a11.63,11.63,0,0,0,2.4,6.241c.147.183.312.369.491.551a10.874,10.874,0,0,0,14.3,0,7.211,7.211,0,0,0,.487-.548,11.634,11.634,0,0,0,2.407-6.244c.027-.244.051-.5.071-.774l.018-.184a3.316,3.316,0,0,1,1.457-2.932l.322-.2Zm-1.906,3.114-.017.182c-.022.339-.048.644-.081.933a11.187,11.187,0,0,1-2.307,6.006q-.1.129-.216.257c-.077.088-.158.173-.242.259-.1.106-.209.209-.317.307a9.3,9.3,0,0,1-6.5,2.236,10.932,10.932,0,0,1-3.972-.681,7.954,7.954,0,0,1-2.847-1.862c-.06-.061-.116-.122-.172-.184-.1-.11-.2-.222-.29-.334a11.2,11.2,0,0,1-2.3-6c-.013-.116-.024-.236-.035-.359-.018-.182-.032-.371-.046-.575l-.018-.183h0a4.239,4.239,0,0,0-.831-2.386,3.018,3.018,0,0,0-.545-.531,3.067,3.067,0,0,0,.545-.53,4.249,4.249,0,0,0,.831-2.386l.019-.185c0-.019,0-.036,0-.054.013-.181.027-.351.042-.516.011-.124.023-.247.035-.363a11.205,11.205,0,0,1,2.306-6.007,6.686,6.686,0,0,1,.46-.515,7.777,7.777,0,0,1,1-.861,9.663,9.663,0,0,1,5.822-1.683,9.3,9.3,0,0,1,6.5,2.236c.108.1.214.2.317.307.084.086.165.171.242.258s.15.172.219.26c.018.021.033.044.05.066a9.792,9.792,0,0,1,1.734,3.351,14.315,14.315,0,0,1,.521,2.587c.033.29.06.595.081.933l0,.061.012.123h0a3.813,3.813,0,0,0,1.377,2.917,3.813,3.813,0,0,0-1.377,2.918" transform="translate(-150.681 -128.517)" fill="#c08d4e"/>
      <path id="패스_56" data-name="패스 56" d="M225.046,163.764a4.59,4.59,0,0,0-4.637,4.532,4.506,4.506,0,0,0,2.309,3.916l-.735,10.178h0a.344.344,0,0,0,.343.343h5.438a.344.344,0,0,0,.342-.343h0l-.739-10.178a4.467,4.467,0,0,0,.849-7.223,4.679,4.679,0,0,0-3.173-1.226m1.976,8.114-.133.07s.73,10.089.73,10.094a.223.223,0,0,1-.194.219H222.67a.222.222,0,0,1-.2-.22c0-.005.728-10.094.728-10.094l-.132-.07a4.052,4.052,0,0,1-2.2-3.582,4.131,4.131,0,0,1,4.176-4.073,4.23,4.23,0,0,1,2.86,1.1,4,4,0,0,1,1.315,2.97,4.049,4.049,0,0,1-2.2,3.582" transform="translate(-150.234 -128.295)" fill="#c08d4e"/>
    </g>
  </g>
</svg>
