<svg xmlns="http://www.w3.org/2000/svg" width="236.21" height="45.354" viewBox="0 0 236.21 45.354">
  <g id="그룹_42" data-name="그룹 42" transform="translate(-425.865 -29.323)">
    <path id="패스_121" data-name="패스 121" d="M435.476,29.363l-9.611,20.824h3.341l1.924-4.4h9.6l1.982,4.4h3.238l-9.49-20.824Zm-3.2,13.885s3.567-8.072,3.6-8.165c.032.155,3.71,8.165,3.71,8.165Z" fill="#1a1311"/>
    <path id="패스_122" data-name="패스 122" d="M526.648,29.363l-9.611,20.824h3.342l1.923-4.4h9.6l1.982,4.4h3.237l-9.489-20.824Zm-3.2,13.885s3.565-8.072,3.6-8.165c.032.155,3.709,8.165,3.709,8.165Z" fill="#1a1311"/>
    <path id="패스_123" data-name="패스 123" d="M571.471,29.363l-9.61,20.824H565.2l1.923-4.4h9.6l1.982,4.4h3.237l-9.489-20.824Zm-3.2,13.885s3.566-8.072,3.6-8.165c.034.155,3.711,8.165,3.711,8.165Z" fill="#1a1311"/>
    <path id="패스_124" data-name="패스 124" d="M466.395,36.077c.028-4.364-3.339-6.538-7.649-6.459H451.38V50.187h3.115V42.192h4.392l4.042,7.995h3.6l-4.44-8.282c2.1-.926,4.285-2.875,4.3-5.828m-7.72,3.581h-4.18V32.519h4a9.3,9.3,0,0,1,2.033.121,3.421,3.421,0,0,1,2.8,3.437,3.461,3.461,0,0,1-2.625,3.417,7.377,7.377,0,0,1-2.026.164" fill="#1a1311"/>
    <path id="패스_125" data-name="패스 125" d="M557.431,36.077c.028-4.364-3.34-6.538-7.65-6.459h-7.365V50.187h3.115V42.192h4.39l4.044,7.995h3.6L553.127,41.9c2.1-.926,4.285-2.875,4.3-5.828m-7.721,3.581h-4.179V32.519h4a9.3,9.3,0,0,1,2.033.121,3.419,3.419,0,0,1,2.8,3.437,3.461,3.461,0,0,1-2.624,3.417,7.391,7.391,0,0,1-2.027.164" fill="#1a1311"/>
    <path id="패스_126" data-name="패스 126" d="M485.161,29.618h-13.82V32.5h5.368V50.187h3.083V32.5h5.368Z" fill="#1a1311"/>
    <path id="패스_127" data-name="패스 127" d="M503.666,42.78h3.559c3.858.11,7.274-2.372,7.274-6.611a6.5,6.5,0,0,0-5.166-6.336,9.92,9.92,0,0,0-2.108-.215h-6.574V50.187h3.015Zm0-10.223h3.359c2.8,0,4.406,1.136,4.406,3.67,0,2.5-1.572,3.7-4.406,3.7h-3.359Z" fill="#1a1311"/>
    <path id="패스_128" data-name="패스 128" d="M592.953,29.618h-5.732V50.187h5.732c7.14,0,11.834-4.13,11.834-10.328s-4.728-10.241-11.834-10.241M592.8,47.362h-2.483V32.355H592.8c5.938,0,8.723,3.1,8.723,7.5s-2.785,7.5-8.723,7.5" fill="#1a1311"/>
    <rect id="사각형_11" data-name="사각형 11" width="3.219" height="20.57" transform="translate(611.897 29.632)" fill="#1a1311"/>
    <path id="패스_129" data-name="패스 129" d="M631.781,39.543c-2.83-1.525-6.318-2.1-6.346-4.939a2.836,2.836,0,0,1,3.074-2.572,7.735,7.735,0,0,1,4.719,1.908l1.626-2.45a9.336,9.336,0,0,0-6.545-2.158c-3.155.129-5.928,2.374-5.928,5.431,0,3.179,1.989,4.679,4.512,5.843l1.454.6c2.391,1,3.857,2.112,3.857,3.9,0,1.694-1.347,2.734-3.576,2.671-2.129-.061-4.137-1.728-4.981-2.491,0,0-1.5,2.222-1.606,2.371a8.994,8.994,0,0,0,6.768,2.851c3.675-.02,6.625-2.163,6.648-5.763.017-2.429-1.663-4.118-3.676-5.2" fill="#1a1311"/>
    <path id="패스_130" data-name="패스 130" d="M651.493,29.415a10.5,10.5,0,1,0,10.582,10.5,10.344,10.344,0,0,0-10.582-10.5m.056,18.107a7.366,7.366,0,0,1-7.582-7.618,7.565,7.565,0,1,1,15.129,0,7.34,7.34,0,0,1-7.547,7.618" fill="#1a1311"/>
    <path id="패스_131" data-name="패스 131" d="M485.777,68.9a1.874,1.874,0,0,0,1.346-1.97c0-1.318-.856-2.351-2.651-2.351h-3.057v9.242h3.3c1.971,0,2.869-1.1,2.869-2.6a2.152,2.152,0,0,0-1.809-2.325m-3.383-3.451h2c1.264,0,1.753.652,1.753,1.549a1.414,1.414,0,0,1-1.617,1.536h-2.133Zm2.255,7.5h-2.255V69.39h2.2c1.345,0,2,.666,2,1.78,0,1.047-.544,1.781-1.944,1.781" fill="#1a1311"/>
    <path id="패스_132" data-name="패스 132" d="M494.9,64.47a4.73,4.73,0,1,0,4.756,4.73,4.627,4.627,0,0,0-4.756-4.73m0,8.576a3.848,3.848,0,1,1,3.738-3.846,3.683,3.683,0,0,1-3.738,3.846" fill="#1a1311"/>
    <path id="패스_133" data-name="패스 133" d="M508.32,70.6a2.342,2.342,0,1,1-4.677,0v-6.02h-.978v6.089a3.317,3.317,0,0,0,6.633,0V64.579h-.978Z" fill="#1a1311"/>
    <path id="패스_134" data-name="패스 134" d="M512.02,65.449h2.84v8.372h.979V65.449h2.84v-.87H512.02Z" fill="#1a1311"/>
    <rect id="사각형_12" data-name="사각형 12" width="0.994" height="9.242" transform="translate(521.522 64.579)" fill="#1a1311"/>
    <path id="패스_135" data-name="패스 135" d="M535.143,69.2a4.75,4.75,0,1,0-4.756,4.73,4.948,4.948,0,0,0,2.677-.774l1.414,1.521.68-.57-1.4-1.5a4.713,4.713,0,0,0,1.385-3.411m-3.438,1.183-.665.571,1.4,1.521a3.745,3.745,0,0,1-2.053.572,3.848,3.848,0,1,1,3.736-3.847,3.911,3.911,0,0,1-1,2.718Z" fill="#1a1311"/>
    <path id="패스_136" data-name="패스 136" d="M543.806,70.6a2.342,2.342,0,1,1-4.677,0v-6.02h-.978v6.089a3.317,3.317,0,0,0,6.633,0V64.579h-.978Z" fill="#1a1311"/>
    <path id="패스_137" data-name="패스 137" d="M549.3,69.608h4.145v-.855H549.3v-3.3h4.647v-.87h-5.628v9.242h5.818v-.87H549.3Z" fill="#1a1311"/>
    <path id="패스_138" data-name="패스 138" d="M569.434,68.887h-4.946V64.579h-.979v9.242h.979V69.77h4.946v4.051h.979V64.579h-.979Z" fill="#1a1311"/>
    <path id="패스_139" data-name="패스 139" d="M578.232,64.47a4.73,4.73,0,1,0,4.757,4.73,4.627,4.627,0,0,0-4.757-4.73m0,8.576A3.848,3.848,0,1,1,581.97,69.2a3.683,3.683,0,0,1-3.738,3.846" fill="#1a1311"/>
    <path id="패스_140" data-name="패스 140" d="M584.719,65.449h2.84v8.372h.979V65.449h2.84v-.87h-6.659Z" fill="#1a1311"/>
    <path id="패스_141" data-name="패스 141" d="M595.161,69.608h4.145v-.855h-4.145v-3.3h4.647v-.87h-5.628v9.242H600v-.87h-4.838Z" fill="#1a1311"/>
    <path id="패스_142" data-name="패스 142" d="M604.134,64.579h-.979v9.242H608.5v-.87h-4.362Z" fill="#1a1311"/>
  </g>
</svg>
