<svg xmlns="http://www.w3.org/2000/svg" width="60" height="60" viewBox="0 0 60 60">
  <g id="_2021-GBAC-STAR-Facility-CMYK-White" data-name="2021-GBAC-STAR-Facility-CMYK-White" transform="translate(-24.5 -24.7)">
    <g id="그룹_3" data-name="그룹 3" transform="translate(24.5 24.7)">
      <g id="그룹_2" data-name="그룹 2" transform="translate(0 0)">
        <path id="패스_30" data-name="패스 30" d="M82.735,59.094c.24-1.551,1.526-2.875,1.765-4.413-.24-1.551-1.538-2.975-1.79-4.526s.567-3.2.315-4.74c-.706-1.4-2.383-2.358-3.1-3.744s-.454-3.215-1.16-4.614c-1.109-1.109-3-1.5-4.11-2.61s-1.425-2.925-2.534-4.022c-1.4-.706-3.316-.5-4.715-1.21s-2.257-2.332-3.656-3.051c-1.551-.24-3.3.542-4.854.3S56.019,24.94,54.481,24.7c-1.551.24-2.975,1.538-4.526,1.79s-3.2-.567-4.74-.315c-1.4.706-2.358,2.383-3.744,3.1s-3.215.454-4.614,1.16c-1.109,1.109-1.5,3-2.61,4.11s-2.925,1.425-4.022,2.534c-.706,1.4-.5,3.316-1.21,4.715s-2.332,2.257-3.051,3.656c-.24,1.551.542,3.3.3,4.854S24.74,53.181,24.5,54.719c.24,1.551,1.538,2.975,1.79,4.526s-.567,3.2-.315,4.74c.706,1.4,2.383,2.358,3.1,3.744s.454,3.215,1.16,4.614c1.109,1.109,3,1.5,4.11,2.61s1.425,2.925,2.534,4.022c1.4.706,3.316.5,4.715,1.21s2.257,2.332,3.656,3.051c1.551.24,3.3-.542,4.854-.3s2.875,1.526,4.413,1.765c1.551-.24,2.975-1.538,4.526-1.79s3.2.567,4.74.315c1.4-.706,2.358-2.383,3.744-3.1s3.215-.454,4.614-1.16c1.109-1.109,1.5-3,2.61-4.11s2.925-1.425,4.022-2.534c.706-1.4.5-3.316,1.21-4.715s2.332-2.257,3.051-3.656C83.277,62.41,82.5,60.645,82.735,59.094ZM54.506,80.766A26.085,26.085,0,1,1,80.592,54.681,26.137,26.137,0,0,1,54.506,80.766Z" transform="translate(-24.5 -24.7)" fill="#d1d3d4"/>
        <path id="패스_31" data-name="패스 31" d="M132.216,327.429c-.063-.567-.517-.744-1.236-.832-.441-.05-.542-.1-.567-.24v-.013c-.013-.113.076-.2.277-.227a1.5,1.5,0,0,1,.883.214l.353-.643a1.975,1.975,0,0,0-1.3-.277c-.731.076-1.135.53-1.072,1.1v.013c.063.618.58.756,1.248.832.429.05.53.113.555.24v.013c.013.126-.1.227-.328.252a1.528,1.528,0,0,1-1.021-.265l-.416.605a2.143,2.143,0,0,0,1.475.353c.769-.076,1.223-.492,1.147-1.122Z" transform="translate(-116.305 -287.488)" fill="#d1d3d4"/>
        <path id="패스_32" data-name="패스 32" d="M153.336,323.631l-.063-.731-2.673.227.063.731.908-.076.2,2.307.845-.063-.2-2.307Z" transform="translate(-134.702 -285.304)" fill="#d1d3d4"/>
        <path id="패스_33" data-name="패스 33" d="M172.7,321.663l-1.1,3.164.883-.063.176-.567,1.185-.076.252.53.908-.063-1.5-2.988Zm.177,1.866.29-.883.4.845Z" transform="translate(-153.054 -284.168)" fill="#d1d3d4"/>
        <path id="패스_34" data-name="패스 34" d="M202.661,321.589h0a.924.924,0,0,0-.3-.706,1.362,1.362,0,0,0-1.009-.29l-1.45.063.126,3.064.845-.038-.038-.92.378-.013.656.9.971-.038-.769-1.034A1.009,1.009,0,0,0,202.661,321.589Zm-1.286.466-.567.025-.025-.744.555-.025c.277-.013.467.1.479.353v.013C201.816,321.9,201.652,322.043,201.375,322.055Z" transform="translate(-177.786 -283.287)" fill="#d1d3d4"/>
        <path id="패스_35" data-name="패스 35" d="M237.232,321.479l-.013-.706-1.45.013v-.517l1.6-.025-.013-.744-2.458.038.05,3.064.845-.013-.013-1.1Z" transform="translate(-208.373 -282.332)" fill="#d1d3d4"/>
        <path id="패스_36" data-name="패스 36" d="M254.311,319.313,253,322.389h.883l.227-.555h1.185l.214.555h.908l-1.286-3.089Zm.05,1.866.353-.87.34.87Z" transform="translate(-224.191 -282.158)" fill="#d1d3d4"/>
        <path id="패스_37" data-name="패스 37" d="M281.922,320.264a.815.815,0,0,1,.656.378l.656-.479a1.5,1.5,0,0,0-1.286-.668,1.566,1.566,0,0,0-1.652,1.551v.013a1.565,1.565,0,0,0,1.538,1.626,1.533,1.533,0,0,0,1.362-.656l-.63-.466a.833.833,0,0,1-.706.353.754.754,0,0,1-.706-.832v-.013A.781.781,0,0,1,281.922,320.264Z" transform="translate(-248.045 -282.328)" fill="#d1d3d4"/>
        <rect id="사각형_1" data-name="사각형 1" width="3.064" height="0.845" transform="matrix(0.04, -0.999, 0.999, 0.04, 35.528, 40.332)" fill="#d1d3d4"/>
        <path id="패스_38" data-name="패스 38" d="M318.321,320.85l-.845-.05-.177,3.064,2.332.126.038-.744-1.475-.088Z" transform="translate(-280.385 -283.469)" fill="#d1d3d4"/>
        <rect id="사각형_2" data-name="사각형 2" width="3.064" height="0.845" transform="matrix(0.069, -0.998, 0.998, 0.069, 39.629, 40.554)" fill="#d1d3d4"/>
        <path id="패스_39" data-name="패스 39" d="M350.1,323.444l.908.076-.189,2.32.845.063.189-2.307.92.076.063-.744-2.673-.227Z" transform="translate(-309.049 -285.129)" fill="#d1d3d4"/>
        <path id="패스_40" data-name="패스 40" d="M374.375,325.886l-.517-1.185-.958-.1.958,2.03-.113,1.147.832.088.126-1.16,1.362-1.765-.946-.1Z" transform="translate(-328.975 -286.789)" fill="#d1d3d4"/>
        <path id="패스_41" data-name="패스 41" d="M146.5,119.13a.809.809,0,0,0,1.147.151.792.792,0,0,0,.113-1.135h0a.81.81,0,0,0-1.147-.151.79.79,0,0,0-.113,1.135Z" transform="translate(-130.957 -106.081)" fill="#d1d3d4"/>
        <path id="패스_42" data-name="패스 42" d="M96.543,190.868l.277-.643-.92-.025Z" transform="translate(-86.898 -169.334)" fill="#d1d3d4"/>
        <path id="패스_43" data-name="패스 43" d="M81.99,231.738h0a.811.811,0,0,0-.946.681.784.784,0,0,0,.706.9h.013a.8.8,0,0,0,.933-.681A.784.784,0,0,0,81.99,231.738Z" transform="translate(-73.908 -205.628)" fill="#d1d3d4"/>
        <path id="패스_44" data-name="패스 44" d="M121.245,142.258h0c-.139-.113-.3-.076-.466.113l-.378.441.429.366.353-.4C121.358,142.56,121.4,142.384,121.245,142.258Z" transform="translate(-108.309 -127.38)" fill="#d1d3d4"/>
        <path id="패스_45" data-name="패스 45" d="M127.746,146.805h0c-.139-.126-.315-.088-.5.139l-.441.517.441.378.454-.53C127.859,147.108,127.9,146.931,127.746,146.805Z" transform="translate(-113.902 -131.348)" fill="#d1d3d4"/>
        <path id="패스_46" data-name="패스 46" d="M369.846,117.433h0c.164-.2.1-.416-.126-.58l-.454-.353-.466.593.466.366A.39.39,0,0,0,369.846,117.433Z" transform="translate(-325.392 -104.926)" fill="#d1d3d4"/>
        <path id="패스_47" data-name="패스 47" d="M413.619,177.744a.8.8,0,0,0,1.1.34h.013a.8.8,0,1,0-.719-1.437H414A.823.823,0,0,0,413.619,177.744Z" transform="translate(-364.487 -157.407)" fill="#d1d3d4"/>
        <path id="패스_48" data-name="패스 48" d="M167.5,103.977h0c-.126-.227-.34-.24-.593-.1l-.5.29.391.656.5-.3C167.547,104.38,167.61,104.166,167.5,103.977Z" transform="translate(-148.51 -93.815)" fill="#d1d3d4"/>
        <path id="패스_49" data-name="패스 49" d="M251.6,81.1l-.3.87.693-.025Z" transform="translate(-222.706 -73.989)" fill="#d1d3d4"/>
        <path id="패스_50" data-name="패스 50" d="M274.511,80.908h0a.759.759,0,0,0-.719-.87L273.339,80l-.139,1.589.454.038A.754.754,0,0,0,274.511,80.908Z" transform="translate(-241.845 -73.028)" fill="#d1d3d4"/>
        <path id="패스_51" data-name="패스 51" d="M345.353,104.875a.786.786,0,0,0,1.1-.315v-.013a.808.808,0,0,0-.277-1.122.786.786,0,0,0-1.1.315v.013A.809.809,0,0,0,345.353,104.875Z" transform="translate(-304.555 -93.402)" fill="#d1d3d4"/>
        <path id="패스_52" data-name="패스 52" d="M93.893,210.514h0c-.177-.05-.315.05-.4.34l-.189.643.555.164.189-.668C94.132,210.741,94.082,210.577,93.893,210.514Z" transform="translate(-84.626 -187.076)" fill="#d1d3d4"/>
        <path id="패스_53" data-name="패스 53" d="M85.93,209.412h0c-.177-.05-.3.05-.378.29l-.151.555.542.151.151-.517C86.156,209.639,86.119,209.463,85.93,209.412Z" transform="translate(-77.722 -186.113)" fill="#d1d3d4"/>
        <path id="패스_54" data-name="패스 54" d="M242.484,406.978a.747.747,0,0,0-.4.076,1.461,1.461,0,0,0-.643,1.248v.013a1.473,1.473,0,0,0,.416,1.3.764.764,0,0,0,.429.176c.567.038.983-.5,1.034-1.311v-.013C243.379,407.634,243.051,407.016,242.484,406.978Z" transform="translate(-214.079 -358.779)" fill="#d1d3d4"/>
        <path id="패스_55" data-name="패스 55" d="M87.366,62.1a25.266,25.266,0,1,0,25.266,25.266A25.311,25.311,0,0,0,87.366,62.1Zm23.249,25.178-.441-.34a.98.98,0,0,0,.265-.693.789.789,0,0,0-.87-.719h-.013a.775.775,0,0,0-.782.807.955.955,0,0,0,.353.681l-.353.391a1.4,1.4,0,0,1,.756-2.5h.013a1.354,1.354,0,0,1,1.45,1.3A1.507,1.507,0,0,1,110.614,87.278Zm-2.156-10.553a1.36,1.36,0,0,1-.58,1.866h-.013a1.408,1.408,0,0,1-1.273-2.509h.013A1.362,1.362,0,0,1,108.458,76.725Zm-3.442-2.963a1.351,1.351,0,0,1,1.916.353,1.388,1.388,0,0,1,.252,1.1l-.567-.063a.982.982,0,0,0-.139-.731.785.785,0,0,0-1.109-.164h0a.792.792,0,0,0-.252,1.109.947.947,0,0,0,.656.391l-.1.517a1.36,1.36,0,0,1-1.009-.63,1.321,1.321,0,0,1,.353-1.879ZM103.151,69.8l.479.479-.3,1.2,1.21-.29.466.466-1.841.4-.744.744L102,72.388l.744-.731Zm-1.1-.883a1.02,1.02,0,0,1,.441.693.813.813,0,0,1-.2.618h0a.812.812,0,0,1-.958.29l-.076,1.147-.53-.416.076-1.021-.366-.277-.53.668-.454-.366,1.639-2.08Zm-4.69-1.488A1.407,1.407,0,0,1,99.8,68.845v.013a1.411,1.411,0,0,1-2.433-1.425Zm-1.576-.391c-.441-.328-.693-.605-.492-1.084v-.013a.825.825,0,0,1,1.16-.378,1.568,1.568,0,0,1,.782.693l-.454.29a1.256,1.256,0,0,0-.53-.5c-.2-.088-.353-.038-.4.076v.013c-.063.164.013.252.391.542.441.34.643.63.466,1.059v.013a.841.841,0,0,1-1.21.378,1.67,1.67,0,0,1-.87-.819l.479-.252a1.229,1.229,0,0,0,.605.605c.214.088.391.063.454-.088v-.013C96.216,67.42,96.153,67.32,95.788,67.042Zm-.92-2.03-.807,2.522-.555-.176.807-2.522Zm-3.114-.82.277,1.967L93.1,64.483l.618.139L92.106,67l-.5-.113-.479-2.837Zm-3.429-.416,1.034.088A1.322,1.322,0,0,1,90.644,65.3v.013a1.324,1.324,0,0,1-1.513,1.2L88.1,66.424Zm-2.358.038.542-.025,1.261,2.61-.605.025-.265-.58-1.122.05-.214.605-.593.025Zm-4.539.719.265,1.122.782-1.374.681-.164-.794,1.336,1.45,1.223-.681.164-1.059-.908-.227.378.189.782-.567.139-.618-2.572Zm-2.295.693a1.466,1.466,0,0,1,1.034-.025l-.126.517a1.112,1.112,0,0,0-.731,0c-.214.076-.29.214-.24.34v.013c.063.164.189.177.656.126.555-.05.908.025,1.059.454v.013a.849.849,0,0,1-.63,1.109,1.638,1.638,0,0,1-1.2-.013l.176-.5a1.254,1.254,0,0,0,.857.025c.227-.088.328-.227.277-.366V66.9c-.05-.139-.164-.176-.618-.126-.542.063-.92.038-1.109-.454v-.013A.841.841,0,0,1,79.133,65.227Zm-1.551.681,1.135,2.4-.53.252-1.135-2.4Zm-2.055,1.059a1.041,1.041,0,0,1,.807-.164.824.824,0,0,1,.5.4v.013a.827.827,0,0,1-.076,1l1.034.479-.58.34-.92-.441-.391.227.429.731-.5.3-1.349-2.282ZM72.69,68.858a1.362,1.362,0,0,1,1.942.189h0a1.409,1.409,0,0,1-2.194,1.765h0A1.362,1.362,0,0,1,72.69,68.858ZM71.077,70.32l1.853,1.891-.416.4-1.853-1.891ZM69.5,71.984a1.029,1.029,0,0,1,.63-.378.634.634,0,0,1,.466.151h0a.617.617,0,0,1,.214.63.647.647,0,0,1,.819.038h0c.366.315.3.769-.088,1.223l-.82.958-2.017-1.715Zm-2.585,3.631L68.744,76.7l.668-1.135.454.265L68.9,77.469,66.626,76.12Zm-1.1,2.105,2.9.025-.24.555-.643-.013L67.4,79.309l.454.454-.24.542L65.618,78.2Zm-2.03,9.506,2.118.038.025-1.324.53.013-.038,1.9-2.648-.05ZM65.378,91h0a1.365,1.365,0,0,1-1.513-1.236,1.459,1.459,0,0,1,.252-1.072L64.6,89a.948.948,0,0,0-.189.719.8.8,0,0,0,.9.668h.013a.8.8,0,0,0,.756-.883,1.006,1.006,0,0,0-.214-.53l-.378.038.063.58-.5.05L64.912,88.5l1.147-.126a1.851,1.851,0,0,1,.542,1.084A1.347,1.347,0,0,1,65.378,91Zm1.3-6.518a1.346,1.346,0,0,1-1.538,1.2h-.013a1.371,1.371,0,0,1-1.16-1.589,1.346,1.346,0,0,1,1.538-1.2h.013A1.364,1.364,0,0,1,66.677,84.479Zm.605-3.038-.34,1.21-2.547-.719.34-1.185a1.009,1.009,0,0,1,.416-.605.577.577,0,0,1,.479-.05h.013a.6.6,0,0,1,.454.492.654.654,0,0,1,.756-.3h.013C67.32,80.419,67.446,80.86,67.282,81.44Zm15.634,23.9a2.589,2.589,0,0,1-.063.3v.013a1.8,1.8,0,0,1-.3.58,2.759,2.759,0,0,1-1.374.769l-1.021.315,2.017.643-.353,1.1-.883-.277-1.475-.466-1.5-.479.013-.063.3-.958,2.269-.807c.567-.214.82-.378.908-.681a.515.515,0,0,0-.391-.681.774.774,0,0,0-.416-.013,2.348,2.348,0,0,0-.756.34l-.328-.5-.34-.542a2.422,2.422,0,0,1,1.929-.517,2.554,2.554,0,0,1,.391.1A1.734,1.734,0,0,1,82.915,105.344Zm5.106,1.816v.013a2.406,2.406,0,0,1-3.026,2.4,2.472,2.472,0,0,1-1.689-2.736v-.013a2.491,2.491,0,0,1,2.194-2.471,1.9,1.9,0,0,1,.378,0,2.217,2.217,0,0,1,1.841,1.2l.076.151A3.037,3.037,0,0,1,88.021,107.16Zm4.085,2.017-1.526.227-1.551.227-.013-.063-.151-1,1.677-1.727c.416-.441.567-.706.517-1.009a.515.515,0,0,0-.643-.441.847.847,0,0,0-.378.164,2.745,2.745,0,0,0-.53.643l-.517-.315-.555-.328a2.4,2.4,0,0,1,1.513-1.311,3.544,3.544,0,0,1,.391-.088,1.74,1.74,0,0,1,2.042,1.046c.025.088.05.189.076.29v.013a1.808,1.808,0,0,1-.013.643,2.639,2.639,0,0,1-.9,1.3l-.782.731,2.093-.315.177,1.147Zm4.161-1.21-1.16.4-.454-1.311-.782-2.244-.025-.076-.744.479-.5-.782-.1-.164.353-.24.933-.643.706-.252.265-.088.025.088.618,1.79.416,1.21.605,1.74.025.05Zm9.052-6.682a130.006,130.006,0,0,0-17.953-1.21h-.013a124.377,124.377,0,0,0-17.941,1.185l-2-7.716c.542-.076,1.084-.151,1.614-.214a19.286,19.286,0,1,1,36.688.025c.542.076,1.084.139,1.626.214Zm1.828-20.626a1.056,1.056,0,0,1,.744-1.462l1.437-.479.189.555-1.412.466c-.4.139-.555.416-.441.756a.55.55,0,0,0,.782.34l1.437-.492.189.555-1.412.479A1.085,1.085,0,0,1,107.147,80.659Zm.555,1.576,2.6-.5.1.53-1.362,1.526,1.6-.3.113.567-2.6.5-.088-.492,1.412-1.576-1.652.315Zm3.1,7.716L108.7,89.7l-.164,1.311-.53-.063.227-1.891,2.622.315Zm.113-1.412-2.648-.1.025-.58,2.648.1Z" transform="translate(-57.36 -57.385)" fill="#d1d3d4"/>
        <g id="그룹_1" data-name="그룹 1" transform="translate(11.107 11.082)">
          <path id="패스_56" data-name="패스 56" d="M279.994,235.291a.782.782,0,0,1,.4-.113.827.827,0,0,1,.63.29c.025.025.038.05.063.076l.088-.05v-.05a.242.242,0,0,1,.164-.227v-.139a.215.215,0,0,1-.088-.013.89.89,0,0,1-.567-.4.838.838,0,0,1,.53-1.21v-.05a1.179,1.179,0,0,0-.983,1.16.831.831,0,0,0,.013.177l-.151.076a1.167,1.167,0,0,0-.517,1.425l.038-.025A.8.8,0,0,1,279.994,235.291Z" transform="translate(-258.46 -218.17)" fill="#d1d3d4"/>
          <path id="패스_57" data-name="패스 57" d="M227.073,253.7H225.8v1.122h1.261c.555,0,.832-.227.832-.555v-.025C227.893,253.927,227.628,253.7,227.073,253.7Z" transform="translate(-211.528 -235.911)" fill="#d1d3d4"/>
          <path id="패스_58" data-name="패스 58" d="M289.489,241.292a.833.833,0,0,1,.492-.176.758.758,0,0,1,.492.176.78.78,0,0,0,.189-.252,1.087,1.087,0,0,0-1.362,0A.537.537,0,0,0,289.489,241.292Z" transform="translate(-267.022 -224.637)" fill="#d1d3d4"/>
          <path id="패스_59" data-name="패스 59" d="M227.791,233.542v-.025c0-.328-.265-.517-.807-.517H225.9v1.059H227C227.526,234.059,227.791,233.883,227.791,233.542Z" transform="translate(-211.615 -217.82)" fill="#d1d3d4"/>
          <path id="패스_60" data-name="패스 60" d="M131.5,112.6a18.9,18.9,0,0,0-18.9,18.9,18.68,18.68,0,0,0,.946,5.913,142.59,142.59,0,0,1,17.953-1.1,140.083,140.083,0,0,1,17.953,1.122A18.929,18.929,0,0,0,131.5,112.6Zm4.74,5.85,1.942.668,1.236-1.639-.038,2.055,1.942.668-1.967.593-.038,2.055-1.173-1.689-1.967.593,1.236-1.639Zm-5.547-.946.807-2.484.807,2.484h2.61l-2.105,1.526.807,2.484-2.105-1.526-2.105,1.526.807-2.484-2.105-1.526Zm-7.123.1,1.248,1.626,1.929-.681-1.16,1.689,1.248,1.626-1.967-.58-1.16,1.689-.05-2.055-1.967-.58,1.929-.681Zm.366,14.839a5.211,5.211,0,0,1-3.328,1.135,3.959,3.959,0,0,1-4.224-3.908v-.025a3.942,3.942,0,0,1,4.148-3.921,4.7,4.7,0,0,1,3.152,1.135l-1.412,1.7a2.542,2.542,0,0,0-1.664-.656,1.681,1.681,0,0,0-1.689,1.778v.025a1.714,1.714,0,0,0,1.79,1.79,1.581,1.581,0,0,0,.857-.177v-.756h-1.286v-1.614h3.644v3.492Zm4.665.971h-4.173v-7.527h4.211a2.849,2.849,0,0,1,2.143.681,1.619,1.619,0,0,1,.466,1.173v.025a1.752,1.752,0,0,1-1.349,1.715c.971.277,1.589.794,1.589,1.828v.025C131.486,132.533,130.5,133.415,128.6,133.415Zm8.649,0-.4-1.009H134.21l-.391,1.009h-2.685l3.177-7.577h2.5l3.177,7.577Zm5.812.164a3.84,3.84,0,0,1-3.908-3.908v-.025a3.888,3.888,0,0,1,4-3.921,3.687,3.687,0,0,1,3.4,1.954l-2.08,1.21a1.46,1.46,0,0,0-1.362-.92,1.506,1.506,0,0,0-1.412,1.652v.025a1.483,1.483,0,0,0,1.412,1.664,1.564,1.564,0,0,0,1.425-.946l2.08,1.173A3.8,3.8,0,0,1,143.06,133.579Z" transform="translate(-112.6 -112.6)" fill="#d1d3d4"/>
          <path id="패스_61" data-name="패스 61" d="M296.309,234.66a1.179,1.179,0,0,0-.983-1.16v.05a.825.825,0,0,1-.038,1.614c-.025,0-.063.013-.088.013v.139a.221.221,0,0,1,.164.227v.05l.088.05c.025-.025.038-.05.063-.076a.827.827,0,0,1,.63-.29.782.782,0,0,1,.4.113.823.823,0,0,1,.378.946l.038.025a1.167,1.167,0,0,0-.517-1.425l-.151-.076A1.151,1.151,0,0,0,296.309,234.66Z" transform="translate(-272.178 -218.257)" fill="#d1d3d4"/>
          <path id="패스_62" data-name="패스 62" d="M296.9,249.075a.878.878,0,0,0,.139.29,1.091,1.091,0,0,0,.681-1.021.774.774,0,0,0-.013-.176.68.68,0,0,0-.315.038.612.612,0,0,1,.013.151A.78.78,0,0,1,296.9,249.075Z" transform="translate(-273.664 -231.071)" fill="#d1d3d4"/>
          <path id="패스_63" data-name="패스 63" d="M283.757,252.1a.952.952,0,0,1-.3-.29.831.831,0,0,1-.076-.693c.013-.025.013-.05.025-.063l-.088-.05a.24.24,0,0,1-.164.063.266.266,0,0,1-.164-.063l-.088.05c.013.025.025.038.025.063a.834.834,0,0,1-1.387.845l-.038.025a1.194,1.194,0,0,0,1.5.265.56.56,0,0,0,.139-.1c.05.038.088.063.139.1a1.194,1.194,0,0,0,1.5-.265l-.038-.025A.782.782,0,0,1,283.757,252.1Z" transform="translate(-260.206 -233.551)" fill="#d1d3d4"/>
          <path id="패스_64" data-name="패스 64" d="M285.913,248.166a.833.833,0,0,0-.013.177,1.091,1.091,0,0,0,.681,1.021.774.774,0,0,0,.139-.29.779.779,0,0,1-.5-.731.614.614,0,0,1,.013-.151A.868.868,0,0,0,285.913,248.166Z" transform="translate(-264.051 -231.07)" fill="#d1d3d4"/>
        </g>
      </g>
    </g>
    <g id="그룹_4" data-name="그룹 4" transform="translate(74.994 75.635)">
      <path id="패스_65" data-name="패스 65" d="M425.353,428.9H425v-.2h.908v.2h-.353v.933h-.214V428.9Zm.807-.189h.227l.34.53.34-.53h.227v1.122h-.214v-.807l-.353.542H426.7l-.353-.542v.807h-.214v-1.122Z" transform="translate(-425 -428.7)" fill="#d1d3d4"/>
    </g>
  </g>
</svg>
