<svg xmlns="http://www.w3.org/2000/svg" viewBox="0 0 19.7 20.35"><defs><style>.cls-1,.cls-2{fill:none;stroke:#998675;stroke-linecap:round;stroke-linejoin:round;}.cls-1{stroke-width:1.5px;}.cls-2{stroke-width:1.8px;}</style></defs><title>자산 1</title><g id="레이어_2" data-name="레이어 2"><g id="Layer_1" data-name="Layer 1"><polygon class="cls-1" points="16 0.75 16.9 2.65 18.9 2.95 17.4 4.35 17.8 6.45 16 5.45 14.2 6.45 14.5 4.35 13.1 2.95 15.1 2.65 16 0.75"/><path class="cls-2" d="M13.4,13.65C8,13.65,6,10.35,6,6.25a9,9,0,0,1,2-4.8c-3.8,1.1-7.1,4.9-7.1,9,0,3.9,3.3,9,9,9a8.92,8.92,0,0,0,8.9-8.1A7.25,7.25,0,0,1,13.4,13.65Z"/></g></g></svg>