<svg xmlns="http://www.w3.org/2000/svg" width="66.099" height="79.602" viewBox="0 0 66.099 79.602">
  <g id="그룹_8" data-name="그룹 8" transform="translate(-143.745 -191.137)">
    <line id="선_1" data-name="선 1" x2="66.099" transform="translate(143.745 260.181)" stroke="#d1d3d4" stroke-miterlimit="10" stroke-width="1.259"/>
    <path id="패스_66" data-name="패스 66" d="M145.2,354.547h.329l.662,1.86.62-1.86h.312l.616,1.856.662-1.856h.32l-.828,2.318h-.312l-.62-1.843-.62,1.843h-.312Z" transform="translate(-0.768 -86.264)" fill="#d1d3d4"/>
    <path id="패스_67" data-name="패스 67" d="M153.5,356h.312v-2.3H153.5Zm0-2.6h.316v-.449H153.5Z" transform="translate(-5.15 -85.422)" fill="#d1d3d4"/>
    <path id="패스_68" data-name="패스 68" d="M155.158,353.723h.42l.054-.691.249-.046v.736h.633v.287h-.633v1.378a.944.944,0,0,0,.01.144.246.246,0,0,0,.046.11.228.228,0,0,0,.1.07.572.572,0,0,0,.189.025h.283v.283l-.06,0-.1,0h-.171a1.02,1.02,0,0,1-.312-.04.41.41,0,0,1-.187-.114.393.393,0,0,1-.09-.185,1.28,1.28,0,0,1-.023-.256V354.01h-.412Z" transform="translate(-6.025 -85.44)" fill="#d1d3d4"/>
    <path id="패스_69" data-name="패스 69" d="M159.133,352.573h.312v1.161a.426.426,0,0,1,.093-.11.526.526,0,0,1,.156-.09,1.185,1.185,0,0,1,.235-.06,2.09,2.09,0,0,1,.33-.023,1.173,1.173,0,0,1,.443.068.551.551,0,0,1,.25.194.7.7,0,0,1,.11.3,2.766,2.766,0,0,1,.025.387v1.4h-.312v-1.348a2.42,2.42,0,0,0-.015-.281.487.487,0,0,0-.075-.219.389.389,0,0,0-.181-.142.906.906,0,0,0-.334-.05,1.029,1.029,0,0,0-.372.056.517.517,0,0,0-.221.156.549.549,0,0,0-.107.237,1.558,1.558,0,0,0-.027.3v1.29h-.312Z" transform="translate(-8.124 -85.222)" fill="#d1d3d4"/>
    <path id="패스_70" data-name="패스 70" d="M226.565,348.553a3.94,3.94,0,0,0-1.55-.28c-1.29,0-2.073.756-2.073,1.639,0,.909.589,1.266,1.4,1.556.875.313,1.105.557,1.105.962a.8.8,0,0,1-.854.805c-.648,0-1.136-.381-1.512-1.43l-.263.068.046,1.5a5.379,5.379,0,0,0,1.812.319c1.366,0,2.2-.667,2.2-1.75,0-.727-.355-1.125-1.252-1.473-.968-.375-1.3-.611-1.3-1.059a.71.71,0,0,1,.714-.764c.623,0,1.047.387,1.326,1.292l.263-.068Z" transform="translate(-41.744 -82.952)" fill="#d1d3d4"/>
    <path id="패스_71" data-name="패스 71" d="M202.776,346.006a2.711,2.711,0,0,0-1.246.321c0-1.116.018-2.09.045-2.457l-2.294.443v.207l.223.029c.321.043.443.23.481.658.072.818.062,5.21,0,5.915a9.069,9.069,0,0,0,1.955.245,2.7,2.7,0,0,0,2.917-2.906,2.22,2.22,0,0,0-2.081-2.454m-.8,5a2.505,2.505,0,0,1-.391-.038c-.036-.494-.059-2.525-.056-4.3a1.494,1.494,0,0,1,.535-.088c.754,0,1.177.87,1.179,1.968,0,1.4-.52,2.459-1.267,2.459" transform="translate(-29.318 -80.627)" fill="#d1d3d4"/>
    <path id="패스_72" data-name="패스 72" d="M174.2,344.212h-6.034v.29l.322.045c.46.066.637.351.692,1a35.7,35.7,0,0,1,0,4.541c-.055.65-.231.934-.692,1l-.322.043v.29h3.878v-.29l-.407-.043c-.46-.068-.636-.353-.691-1-.037-.441-.061-1.188-.069-2.064l.8.026c.534.017.757.413.885,1h.3v-2.441h-.3c-.128.586-.351.981-.885,1l-.8.026c-.006-1.153.016-2.26.071-2.925h1.191c.93,0,1.427.59,1.739,1.633l.357-.1Z" transform="translate(-12.89 -80.808)" fill="#d1d3d4"/>
    <path id="패스_73" data-name="패스 73" d="M182.105,348.273a2.439,2.439,0,0,1,2.567,2.7A2.564,2.564,0,0,1,182,353.691a2.439,2.439,0,0,1-2.566-2.7,2.563,2.563,0,0,1,2.676-2.722m-.089.332c-.758,0-.971,1.025-.971,2.377,0,1.315.336,2.377,1.04,2.377.757,0,.97-1.025.97-2.377,0-1.315-.335-2.377-1.039-2.377" transform="translate(-18.838 -82.952)" fill="#d1d3d4"/>
    <path id="패스_74" data-name="패스 74" d="M211.984,351.033a2.586,2.586,0,0,1,2.662-2.753c1.438,0,2.125,1.066,2.132,2.461H213.57c-.035,1.265.6,2.2,1.832,2.2a1.678,1.678,0,0,0,1.157-.383l.151.18a2.571,2.571,0,0,1-2.084.961,2.543,2.543,0,0,1-2.641-2.661m1.6-.653,1.609-.034c.008-.712-.106-1.73-.685-1.73s-.91.963-.924,1.764" transform="translate(-36.024 -82.956)" fill="#d1d3d4"/>
    <path id="패스_75" data-name="패스 75" d="M195.065,348.4c-.579-.346-1.634-.183-2.169,1.047l.027-1.2-2.287.444v.206l.223.028c.319.044.443.232.482.659a22.407,22.407,0,0,1,0,2.986c-.039.426-.162.614-.482.658l-.223.029v.29h3.184v-.29l-.416-.029c-.32-.044-.443-.232-.48-.658a22.635,22.635,0,0,1-.016-2.773,1.259,1.259,0,0,1,1.6.008Z" transform="translate(-24.754 -82.937)" fill="#d1d3d4"/>
    <path id="패스_76" data-name="패스 76" d="M238.3,348.255h-.99v1.923h-.47v-1.923h-.994v-.312H238.3Z" transform="translate(-48.622 -82.778)" fill="#d1d3d4"/>
    <path id="패스_77" data-name="패스 77" d="M244.4,350.177v-2.234h1.3a.856.856,0,0,1,.923.728.709.709,0,0,1-.583.658l.709.849h-.533l-.654-.777h-.688v.777Zm.47-1.089h.822a.427.427,0,0,0,.449-.418.457.457,0,0,0-.474-.416h-.8Z" transform="translate(-53.136 -82.778)" fill="#d1d3d4"/>
    <path id="패스_78" data-name="패스 78" d="M252.5,350.178l1.2-2.234h.386l1.2,2.234h-.5l-.319-.607H253.31l-.311.607Zm1.393-1.841-.5.973h.973Z" transform="translate(-57.41 -82.778)" fill="#d1d3d4"/>
    <path id="패스_79" data-name="패스 79" d="M261.153,347.944l.9,1.791.893-1.791h.5l-1.187,2.234h-.4l-1.2-2.234Z" transform="translate(-61.716 -82.778)" fill="#d1d3d4"/>
    <path id="패스_80" data-name="패스 80" d="M272.215,349.867v.312h-2.043v-2.234h2.005v.312h-1.536v.636h1.33v.293h-1.33v.683Z" transform="translate(-66.741 -82.778)" fill="#d1d3d4"/>
    <path id="패스_81" data-name="패스 81" d="M278.41,350.178v-2.234h.47v1.923h1.6v.312Z" transform="translate(-71.09 -82.778)" fill="#d1d3d4"/>
    <path id="패스_82" data-name="패스 82" d="M238.163,356.812a1.412,1.412,0,0,1-2.251-.855,1.286,1.286,0,0,1,1.411-1.131,1.309,1.309,0,0,1,1.145.491l-.363.2a.917.917,0,0,0-.795-.368.857.857,0,0,0-.916.82.883.883,0,0,0,.95.821,1.181,1.181,0,0,0,.82-.333v-.238h-.629v-.263h1.026v1.137h-.4Z" transform="translate(-48.655 -86.411)" fill="#d1d3d4"/>
    <path id="패스_83" data-name="패스 83" d="M247.562,356v-1.141h.477V356c0,.615-.372,1.125-1.3,1.125-.955,0-1.293-.542-1.293-1.125v-1.141h.473V356a.82.82,0,0,0,1.639,0" transform="translate(-53.69 -86.429)" fill="#d1d3d4"/>
    <rect id="사각형_6" data-name="사각형 6" width="0.473" height="2.246" transform="translate(196.327 268.434)" fill="#d1d3d4"/>
    <path id="패스_84" data-name="패스 84" d="M260.42,357.109v-2.25h1.065c.967,0,1.462.5,1.462,1.122,0,.681-.575,1.128-1.462,1.128Zm1.065-1.936h-.592V356.8h.592c.634,0,.98-.352.98-.814s-.359-.808-.98-.808" transform="translate(-61.593 -86.429)" fill="#d1d3d4"/>
    <path id="패스_85" data-name="패스 85" d="M271.228,356.795v.314h-2.057v-2.25h2.019v.314h-1.546v.64h1.339v.295h-1.339v.687Z" transform="translate(-66.213 -86.428)" fill="#d1d3d4"/>
    <path id="패스_86" data-name="패스 86" d="M154.538,311.326h1.922l2.313,6.057,2.3-6.057h1.889l-3.3,8.337h-1.855Z" transform="translate(-5.698 -63.448)" fill="#d1d3d4"/>
    <path id="패스_87" data-name="패스 87" d="M174.469,311.326h6.225v1.654H176.3v1.609h4.28v1.6H176.3v1.821h4.436v1.6h-6.269Z" transform="translate(-16.219 -63.448)" fill="#d1d3d4"/>
    <path id="패스_88" data-name="패스 88" d="M194.373,316.858h-1.855v2.749H190.73v-8.281h4a5.378,5.378,0,0,1,1.6.2,2.406,2.406,0,0,1,.989.559,1.923,1.923,0,0,1,.5.855,4.022,4.022,0,0,1,.14,1.09,4.3,4.3,0,0,1-.078.827,2.382,2.382,0,0,1-.279.749,2.194,2.194,0,0,1-.537.615,2.663,2.663,0,0,1-.849.436l1.643,2.951H195.9Zm.3-1.576a1.951,1.951,0,0,0,1.095-.24,1.081,1.081,0,0,0,.347-.944,1.79,1.79,0,0,0-.084-.592.791.791,0,0,0-.257-.369,1.074,1.074,0,0,0-.452-.19,3.465,3.465,0,0,0-.671-.056h-2.134v2.392Z" transform="translate(-24.804 -63.448)" fill="#d1d3d4"/>
    <rect id="사각형_7" data-name="사각형 7" width="1.821" height="8.281" transform="translate(174.676 247.878)" fill="#d1d3d4"/>
    <path id="패스_89" data-name="패스 89" d="M216.886,311.326h6.024v1.654h-4.191v1.777H222.8v1.632h-4.079v3.218h-1.833Z" transform="translate(-38.611 -63.448)" fill="#d1d3d4"/>
    <rect id="사각형_8" data-name="사각형 8" width="1.821" height="8.281" transform="translate(185.684 247.878)" fill="#d1d3d4"/>
    <path id="패스_90" data-name="패스 90" d="M240.2,311.326h6.225v1.654h-4.392v1.609h4.28v1.6h-4.28v1.821h4.437v1.6H240.2Z" transform="translate(-50.92 -63.448)" fill="#d1d3d4"/>
    <path id="패스_91" data-name="패스 91" d="M256.463,311.326h2.973a10.321,10.321,0,0,1,2.1.184,3.221,3.221,0,0,1,1.43.654,2.721,2.721,0,0,1,.821,1.269,6.614,6.614,0,0,1,.262,2.028,6.388,6.388,0,0,1-.268,2.006,2.751,2.751,0,0,1-.838,1.274,3.358,3.358,0,0,1-1.447.671,9.82,9.82,0,0,1-2.107.2h-2.928Zm3.029,6.683a5.808,5.808,0,0,0,1.38-.134,1.717,1.717,0,0,0,.827-.436,1.575,1.575,0,0,0,.4-.788,5.676,5.676,0,0,0,.106-1.19,6.15,6.15,0,0,0-.095-1.179,1.437,1.437,0,0,0-.391-.766,1.737,1.737,0,0,0-.832-.419,6.389,6.389,0,0,0-1.431-.128H258.3v5.04Z" transform="translate(-59.504 -63.448)" fill="#d1d3d4"/>
    <path id="패스_92" data-name="패스 92" d="M238.7,234.331v0" transform="translate(-50.127 -22.795)" fill="#d1d3d4"/>
    <path id="패스_93" data-name="패스 93" d="M203.739,219.12a6.962,6.962,0,0,0-5.458,2.656,6.962,6.962,0,0,0-5.458-2.656,7.105,7.105,0,0,0-7.031,7.176h0v.015a7.322,7.322,0,0,0,.2,1.687c1.6,7.034,12.288,13.978,12.288,13.978h0S208.973,235.03,210.57,228a7.322,7.322,0,0,0,.2-1.687v-.015h0a7.105,7.105,0,0,0-7.031-7.176" transform="translate(-22.197 -14.772)" fill="#d1d3d4"/>
    <path id="패스_94" data-name="패스 94" d="M215.581,238.934l-11.118-9.05a22.015,22.015,0,0,0,5.045-14.735,24.047,24.047,0,1,0-9.118,18.821l2.317,4.964ZM185.5,233.4a18.247,18.247,0,1,1,18.247-18.247A18.251,18.251,0,0,1,185.5,233.4" transform="translate(-9.366 0)" fill="#d1d3d4"/>
    <path id="패스_95" data-name="패스 95" d="M275.019,311h-.288v.926h-.245V311h-.295v-.2h.828Zm1.034.151-.259.779h-.129l-.259-.777v.777h-.232V310.8h.286l.27.8.278-.8h.278v1.128h-.232Z" transform="translate(-68.863 -63.17)" fill="#d1d3d4"/>
  </g>
</svg>
